<svg xmlns="http://www.w3.org/2000/svg" width="3200" height="1800"><style>.a{fill:#4fa664;}.b{fill:#5daa3c;}</style><path d="M-77-324L264-295 782-313Z" fill="#ba2f18"/><path d="M1449-299L1700-259 2021-263Z" fill="#9e7c1a"/><path d="M1413 2079L995 2099 2062 2110Z" fill="#948078"/><path d="M782-313L1449-299 2271-292Z" fill="#a8801a"/><path d="M1449-299L2021-263 2271-292Z" fill="#967418"/><path d="M2437 2073L2062 2110 2703 2109Z" fill="#686d8f"/><path d="M2271-292L2764-197 3063-278Z" fill="#8a5d55"/><path d="M3325 941L3429 1108 3441 724Z" fill="#858077"/><path d="M3222 435L3441 724 3449 445Z" fill="#b37a77"/><path d="M2703 2109L2062 2110 3466 2125Z" fill="#5a58a2"/><path d="M3010 2055L2703 2109 3466 2125Z" fill="#4d3aa9"/><path d="M3444 1885L3186 1963 3466 2125Z" fill="#5832a9"/><path d="M3446 1711L3444 1885 3466 2125Z" fill="#5534a9"/><path d="M3401 51L3231 256 3466 406Z" fill="#b0566c"/><path d="M3449 445L3441 724 3466 406Z" fill="#b77577"/><path d="M3429 1108L3282 1244 3495 1290Z" fill="#776e70"/><path d="M3282 1244L3429 1485 3495 1290Z" fill="#6d6e83"/><path d="M3429 1485L3446 1711 3495 1290Z" fill="#616d9a"/><path d="M3466 406L3441 724 3495 1290Z" fill="#997e78"/><path d="M3441 724L3429 1108 3495 1290Z" fill="#837774"/><path d="M3446 1711L3466 2125 3495 1290Z" fill="#564ea5"/><path d="M3319-219L3401 51 3495-129Z" fill="#a11b63"/><path d="M3401 51L3466 406 3495-129Z" fill="#af3969"/><path d="M3466 406L3495 1290 3495-129Z" fill="#b97477"/><path d="M3319-219L3241-177 3401 51Z" fill="#9d2463"/><path d="M3222 435L3191 749 3441 724Z" fill="#a88479"/><path d="M3429 1485L3216 1686 3446 1711Z" fill="#525fa2"/><path d="M3191 1770L3444 1885 3446 1711Z" fill="#4746a8"/><path d="M3186 1963L3010 2055 3466 2125Z" fill="#5435a9"/><path d="M3222 435L3449 445 3466 406Z" fill="#b36e73"/><path d="M3231 256L3222 435 3466 406Z" fill="#af6970"/><path d="M3191 749L3230 912 3325 941Z" fill="#828677"/><path d="M3266 1138L3282 1244 3429 1108Z" fill="#757471"/><path d="M3191 749L3325 941 3441 724Z" fill="#908378"/><path d="M3216 1686L3191 1770 3446 1711Z" fill="#4553a5"/><path d="M3325 941L3266 1138 3429 1108Z" fill="#7b7973"/><path d="M3191 1770L3186 1963 3444 1885Z" fill="#4241a9"/><path d="M3135 1556L3216 1686 3429 1485Z" fill="#4b6a9f"/><path d="M3182 204L3231 256 3401 51Z" fill="#a9506a"/><path d="M3282 1244L3135 1556 3429 1485Z" fill="#5b7390"/><path d="M3241-177L3124-27 3401 51Z" fill="#a02c65"/><path d="M3124-27L3182 204 3401 51Z" fill="#a54268"/><path d="M3048 481L3191 749 3222 435Z" fill="#a78577"/><path d="M3114-82L3124-27 3241-177Z" fill="#983263"/><path d="M3022 1343L3135 1556 3282 1244Z" fill="#567789"/><path d="M3063-278L3241-177 3319-219Z" fill="#8f2b60"/><path d="M3230 912L3266 1138 3325 941Z" fill="#798075"/><path d="M3119 1924L3186 1963 3191 1770Z" fill="#3944a9"/><path d="M3048 481L3033 727 3191 749Z" fill="#9a8c78"/><path d="M3230 912L3017 1001 3266 1138Z" fill="#728174"/><path d="M3266 1138L3022 1343 3282 1244Z" fill="#677674"/><path d="M3017 1001L3022 1343 3266 1138Z" fill="#657b70"/><path d="M3011 270L3048 481 3222 435Z" fill="#a47670"/><path d="M3191 749L3025 874 3230 912Z" fill="#7f8977"/><path d="M3011 270L3222 435 3231 256Z" fill="#a76b6e"/><path d="M3182 204L3011 270 3231 256Z" fill="#a6616b"/><path d="M3063-278L3114-82 3241-177Z" fill="#8f3161"/><path d="M3022 1343L2988 1398 3135 1556Z" fill="#447990"/><path d="M3025 874L3017 1001 3230 912Z" fill="#6f8976"/><path d="M3124-27L2950 71 3182 204Z" fill="#9e4c68"/><path d="M3135 1556L3043 1657 3216 1686Z" fill="#3a66a1"/><path d="M3043 1657L3191 1770 3216 1686Z" fill="#385ba5"/><path d="M3017 1001L2876 1121 3022 1343Z" fill="#60836e"/><path d="M2950 71L3011 270 3182 204Z" fill="#9f5c6a"/><path d="M3119 1924L3010 2055 3186 1963Z" fill="#4140a9"/><path d="M3043 1657L3119 1924 3191 1770Z" fill="#2c50a8"/><path d="M3033 727L3025 874 3191 749Z" fill="#858c77"/><path d="M3043 1657L2877 1904 3119 1924Z" fill="#154ea9"/><path d="M2988 1398L3043 1657 3135 1556Z" fill="#32779e"/><path d="M3114-82L2950 71 3124-27Z" fill="#9a3d65"/><path d="M2884 511L3033 727 3048 481Z" fill="#a09076"/><path d="M3063-278L2764-197 3114-82Z" fill="#8b3f5f"/><path d="M2877 1904L3010 2055 3119 1924Z" fill="#3847a9"/><path d="M2764-197L2950 71 3114-82Z" fill="#964761"/><path d="M2271-292L2582-171 2764-197Z" fill="#8f6f4f"/><path d="M2820 309L2884 511 3011 270Z" fill="#a2826b"/><path d="M2876 1121L2812 1214 3022 1343Z" fill="#5b866d"/><path d="M2899 834L3025 874 3033 727Z" fill="#7c9275"/><path d="M2988 1398L2865 1643 3043 1657Z" fill="#2d799d"/><path d="M2865 1643L2877 1904 3043 1657Z" fill="#2764a3"/><path d="M3011 270L2884 511 3048 481Z" fill="#a18070"/><path d="M2271-292L2505-178 2582-171Z" fill="#916f46"/><path d="M2764-197L2751 20 2950 71Z" fill="#9b575f"/><path d="M2950 71L2820 198 3011 270Z" fill="#a06966"/><path d="M2884 511L2799 771 3033 727Z" fill="#939a73"/><path d="M2798 1393L2865 1643 2988 1398Z" fill="#368893"/><path d="M2899 834L3017 1001 3025 874Z" fill="#6b9275"/><path d="M2799 771L2899 834 3033 727Z" fill="#819a73"/><path d="M2812 1214L2988 1398 3022 1343Z" fill="#52837c"/><path d="M2812 1214L2798 1393 2988 1398Z" fill="#4f8a7c"/><path d="M2899 834L2876 1121 3017 1001Z" fill="#679171"/><path d="M2820 198L2820 309 3011 270Z" fill="#a27966"/><path d="M2877 1904L2752 1953 3010 2055Z" fill="#4153a6"/><path d="M2752 1953L2703 2109 3010 2055Z" fill="#4d55a4"/><path d="M2737 702L2799 771 2884 511Z" fill="#94a56f"/><path d="M2686 965L2876 1121 2899 834Z" fill="#659d6d"/><path d="M2751 20L2820 198 2950 71Z" fill="#9f6762"/><path d="M2798 1393L2635 1564 2865 1643Z" fill="#299196"/><path d="M2865 1643L2699 1940 2877 1904Z" fill="#2761a4"/><path d="M2699 1940L2752 1953 2877 1904Z" fill="#3e60a3"/><path d="M2700 537L2737 702 2884 511Z" fill="#a0a86e"/><path d="M2820 309L2700 537 2884 511Z" fill="#a2976a"/><path d="M2799 771L2686 965 2899 834Z" fill="#71a56e"/><path d="M2581 1604L2699 1940 2865 1643Z" fill="#2d799e"/><path d="M2635 1564L2581 1604 2865 1643Z" fill="#2b8e97"/><path d="M2686 965L2812 1214 2876 1121Z" fill="#5f9869"/><path d="M2686 965L2595 1104 2812 1214Z" fill="#5ca266"/><path d="M2695 1246L2798 1393 2812 1214Z" fill="#529372"/><path d="M2739 278L2700 537 2820 309Z" fill="#a39465"/><path d="M2635-120L2751 20 2764-197Z" fill="#976159"/><path d="M2595 1104L2695 1246 2812 1214Z" fill="#589c63"/><path d="M2751 20L2600 55 2820 198Z" fill="#a0745d"/><path d="M2600 55L2739 278 2820 198Z" fill="#a2805f"/><path d="M2820 198L2739 278 2820 309Z" fill="#a38463"/><path d="M2737 702L2686 965 2799 771Z" fill="#79ab6c"/><path d="M2695 1246L2485 1382 2798 1393Z" fill="#479e76"/><path d="M2485 1382L2635 1564 2798 1393Z" fill="#34a086"/><path d="M2524 681L2686 965 2737 702Z" fill="#7cb468"/><path d="M2529 523L2700 537 2739 278Z" fill="#a1a663"/><path d="M2462 376L2529 523 2739 278Z" fill="#a2a95e"/><path d="M2600 55L2522 175 2739 278Z" fill="#a2895a"/><path d="M2699 1940L2703 2109 2752 1953Z" fill="#4c61a2"/><path d="M2582-171L2635-120 2764-197Z" fill="#936556"/><path d="M2581 1604L2393 1887 2699 1940Z" fill="#2d7c9d"/><path d="M2700 537L2524 681 2737 702Z" fill="#96b669"/><path d="M2635-120L2600 55 2751 20Z" fill="#9f6c59"/><path d="M2522 175L2462 376 2739 278Z" fill="#a49d5a"/><path d="M2468 1609L2393 1887 2581 1604Z" fill="#378d90"/><path d="M2524 681L2399 861 2686 965Z" fill="#6ebf61"/><path d="M2529 523L2524 681 2700 537Z" fill="#9ebc65"/><path d="M2699 1940L2437 2073 2703 2109Z" fill="#546a9f"/><path d="M2393 1887L2437 2073 2699 1940Z" fill="#4f7499"/><path d="M2595 1104L2485 1382 2695 1246Z" class="a"/><path d="M2399 861L2595 1104 2686 965Z" fill="#5bb862"/><path d="M2485 1382L2468 1609 2581 1604Z" fill="#21a78b"/><path d="M2364 1198L2485 1382 2595 1104Z" fill="#52aa58"/><path d="M2399 861L2370 1111 2595 1104Z" fill="#5eb655"/><path d="M2502-5L2600 55 2635-120Z" fill="#9f7456"/><path d="M2582-171L2502-5 2635-120Z" fill="#997154"/><path d="M2485 1382L2581 1604 2635 1564Z" fill="#16a78f"/><path d="M638 2036L-128 2101 995 2099Z" fill="#b04a6b"/><path d="M2505-178L2502-5 2582-171Z" fill="#987350"/><path d="M2370 1111L2364 1198 2595 1104Z" fill="#59ae52"/><path d="M2502-5L2522 175 2600 55Z" fill="#a28555"/><path d="M1676 2033L1413 2079 2062 2110Z" fill="#837c75"/><path d="M2327 1608L2393 1887 2468 1609Z" fill="#418d88"/><path d="M2327 1608L2468 1609 2485 1382Z" fill="#32a683"/><path d="M2268 1539L2327 1608 2485 1382Z" fill="#3aa979"/><path d="M2158 239L2462 376 2522 175Z" fill="#a79e45"/><path d="M2502-5L2187 100 2522 175Z" fill="#a58746"/><path d="M2300 753L2399 861 2524 681Z" fill="#82bf52"/><path d="M2318 453L2300 753 2524 681Z" fill="#9bc14f"/><path d="M2318 453L2524 681 2529 523Z" fill="#a1bd57"/><path d="M2462 376L2318 453 2529 523Z" fill="#a3b251"/><path d="M2187 100L2158 239 2522 175Z" fill="#a89239"/><path d="M2158 239L2295 416 2462 376Z" fill="#a8a73c"/><path d="M2177 34L2502-5 2505-178Z" fill="#a17644"/><path d="M2177 34L2187 100 2502-5Z" fill="#a68139"/><path d="M2271-292L2177 34 2505-178Z" fill="#9a7339"/><path d="M2327 1608L2206 1757 2393 1887Z" fill="#4c8682"/><path d="M2393 1887L2289 1967 2437 2073Z" fill="#5c738c"/><path d="M2364 1198L2206 1312 2485 1382Z" fill="#54aa56"/><path d="M2206 1312L2268 1539 2485 1382Z" fill="#4ba965"/><path d="M2295 416L2318 453 2462 376Z" fill="#a6af46"/><path d="M2243 817L2370 1111 2399 861Z" fill="#67bc48"/><path d="M2289 1967L2062 2110 2437 2073Z" fill="#6c7081"/><path d="M2140 513L2300 753 2318 453Z" fill="#a5c03d"/><path d="M2243 817L2174 1174 2370 1111Z" fill="#65b53d"/><path d="M2206 1757L2289 1967 2393 1887Z" fill="#547984"/><path d="M2300 753L2243 817 2399 861Z" fill="#7cbf45"/><path d="M2174 1174L2364 1198 2370 1111Z" fill="#5ead40"/><path d="M2174 1174L2206 1312 2364 1198Z" class="b"/><path d="M1995 1055L2174 1174 2243 817Z" fill="#6ab729"/><path d="M2021-263L2177 34 2271-292Z" fill="#9a7225"/><path d="M2140 513L2064 693 2300 753Z" fill="#9cc12f"/><path d="M2268 1539L2206 1757 2327 1608Z" fill="#4b9878"/><path d="M2295 416L2140 513 2318 453Z" fill="#a7b438"/><path d="M2028 809L1995 1055 2243 817Z" fill="#71bf21"/><path d="M2061 1702L2206 1757 2268 1539Z" fill="#539270"/><path d="M2206 1312L2046 1387 2268 1539Z" fill="#54a955"/><path d="M2206 1757L2006 1881 2289 1967Z" fill="#5d7878"/><path d="M2158 239L2140 513 2295 416Z" fill="#a9ad2e"/><path d="M2064 693L2243 817 2300 753Z" fill="#89c035"/><path d="M2006 1881L2062 2110 2289 1967Z" fill="#6d7374"/><path d="M1963 1003L1995 1055 2028 809Z" fill="#70bf1d"/><path d="M2046 1387L2061 1702 2268 1539Z" class="a"/><path d="M2021-263L1942-174 2177 34Z" fill="#9f751a"/><path d="M1942-174L1983 13 2177 34Z" fill="#a7791c"/><path d="M2064 693L2028 809 2243 817Z" fill="#88c025"/><path d="M2075 200L2140 513 2158 239Z" fill="#aba51f"/><path d="M2075 200L2158 239 2187 100Z" fill="#aa9423"/><path d="M2061 1702L2006 1881 2206 1757Z" fill="#5c826e"/><path d="M2174 1174L2057 1275 2206 1312Z" fill="#5fab33"/><path d="M2057 1275L2046 1387 2206 1312Z" class="b"/><path d="M1852 2015L1676 2033 2062 2110Z" fill="#7d7873"/><path d="M2075 200L1858 539 2140 513Z" fill="#acb216"/><path d="M2177 34L1983 13 2187 100Z" fill="#a98322"/><path d="M1983 13L2075 200 2187 100Z" fill="#aa8a1a"/><path d="M2046 1387L1867 1562 2061 1702Z" fill="#56a85f"/><path d="M1806 271L1858 539 2075 200Z" fill="#b0ae13"/><path d="M1995 1055L2057 1275 2174 1174Z" fill="#64ad1a"/><path d="M1950 855L1963 1003 2028 809Z" fill="#75c31e"/><path d="M1858 539L2064 693 2140 513Z" fill="#aac31b"/><path d="M1806 271L1778 470 1858 539Z" fill="#b3bc17"/><path d="M1995 1055L1914 1236 2057 1275Z" fill="#66b01a"/><path d="M1867 1562L1929 1717 2061 1702Z" fill="#5d9968"/><path d="M1929 1717L2006 1881 2061 1702Z" fill="#5f876d"/><path d="M2006 1881L1906 1918 2062 2110Z" fill="#707771"/><path d="M1906 1918L1852 2015 2062 2110Z" fill="#767772"/><path d="M1983 13L1818 77 2075 200Z" fill="#ad8e1a"/><path d="M1818 77L1806 271 2075 200Z" fill="#b19c17"/><path d="M1914 1236L2046 1387 2057 1275Z" fill="#61ad33"/><path d="M1858 790L2028 809 2064 693Z" fill="#8dc51d"/><path d="M1858 539L1858 790 2064 693Z" fill="#9ec71d"/><path d="M1914 1236L1867 1562 2046 1387Z" fill="#5db048"/><path d="M1880 6L1818 77 1983 13Z" fill="#ae871d"/><path d="M1942-174L1880 6 1983 13Z" fill="#aa7d1d"/><path d="M1700-259L1942-174 2021-263Z" fill="#9c771a"/><path d="M1858 790L1950 855 2028 809Z" fill="#84c51e"/><path d="M1929 1717L1906 1918 2006 1881Z" fill="#637f71"/><path d="M1722 1527L1867 1562 1914 1236Z" fill="#5eb452"/><path d="M1963 1003L1914 1236 1995 1055Z" fill="#6bb71c"/><path d="M1658 1078L1914 1236 1963 1003Z" fill="#6ebb1c"/><path d="M1654 1270L1722 1527 1914 1236Z" fill="#66b740"/><path d="M1858 790L1695 870 1950 855Z" fill="#84ca1f"/><path d="M1950 855L1695 870 1963 1003Z" fill="#76c71f"/><path d="M1695 870L1658 1078 1963 1003Z" fill="#75c61e"/><path d="M1735 1703L1906 1918 1929 1717Z" fill="#638a70"/><path d="M1696 720L1858 790 1858 539Z" fill="#a1cd1d"/><path d="M1867 1562L1735 1703 1929 1717Z" fill="#609d69"/><path d="M1700-259L1880 6 1942-174Z" fill="#a57d1b"/><path d="M1700-259L1607-29 1880 6Z" fill="#ad831d"/><path d="M1735 1703L1609 1880 1906 1918Z" fill="#688774"/><path d="M1658 1078L1654 1270 1914 1236Z" fill="#6dba1c"/><path d="M1771 263L1806 271 1818 77Z" fill="#b4a217"/><path d="M1609 1880L1852 2015 1906 1918Z" fill="#738074"/><path d="M1700 123L1771 263 1818 77Z" fill="#b59d19"/><path d="M1609 1880L1676 2033 1852 2015Z" fill="#7a8175"/><path d="M1607-29L1818 77 1880 6Z" fill="#b38b1e"/><path d="M1771 263L1778 470 1806 271Z" fill="#b5b314"/><path d="M1778 470L1696 720 1858 539Z" fill="#b1cd1c"/><path d="M1722 1527L1735 1703 1867 1562Z" fill="#5faa66"/><path d="M1696 720L1695 870 1858 790Z" fill="#8ece1f"/><path d="M1555 490L1696 720 1778 470Z" fill="#b5cf1c"/><path d="M1607-29L1700 123 1818 77Z" fill="#b5931d"/><path d="M1771 263L1527 304 1778 470Z" fill="#b8b815"/><path d="M1527 304L1555 490 1778 470Z" fill="#b9c318"/><path d="M1555 490L1586 707 1696 720Z" fill="#aed61e"/><path d="M1700 123L1527 304 1771 263Z" fill="#b9ab16"/><path d="M1555 1176L1654 1270 1658 1078Z" fill="#71c01e"/><path d="M1506-97L1607-29 1700-259Z" fill="#ae871e"/><path d="M1654 1270L1542 1552 1722 1527Z" fill="#63bc56"/><path d="M1553 1710L1609 1880 1735 1703Z" fill="#6a9572"/><path d="M1722 1527L1542 1552 1735 1703Z" fill="#62af67"/><path d="M1542 1552L1553 1710 1735 1703Z" fill="#66a86c"/><path d="M1586 707L1695 870 1696 720Z" fill="#97d21f"/><path d="M1486 131L1527 304 1700 123Z" fill="#bda819"/><path d="M1417 819L1658 1078 1695 870Z" fill="#7fd120"/><path d="M1607-29L1486 131 1700 123Z" fill="#ba991d"/><path d="M1449-299L1506-97 1700-259Z" fill="#ab831c"/><path d="M1417 819L1343 941 1658 1078Z" fill="#8dd120"/><path d="M1586 707L1417 819 1695 870Z" fill="#96d520"/><path d="M1468 1208L1542 1552 1654 1270Z" fill="#71bf41"/><path d="M1609 1880L1413 2079 1676 2033Z" fill="#838577"/><path d="M1468 1208L1332 1325 1542 1552Z" fill="#7ebf45"/><path d="M1343 941L1555 1176 1658 1078Z" fill="#81c81f"/><path d="M1555 1176L1468 1208 1654 1270Z" fill="#75bf20"/><path d="M1343 941L1468 1208 1555 1176Z" fill="#87c61e"/><path d="M1555 490L1406 672 1586 707Z" fill="#bbd61e"/><path d="M1506-97L1486 131 1607-29Z" fill="#be8f1f"/><path d="M1553 1710L1451 1849 1609 1880Z" fill="#738f76"/><path d="M1451 1849L1413 2079 1609 1880Z" fill="#858877"/><path d="M782-313L1093-170 1449-299Z" fill="#cc7e1b"/><path d="M1386-55L1486 131 1506-97Z" fill="#c48e20"/><path d="M1332 1325L1301 1501 1542 1552Z" fill="#80bf59"/><path d="M1406 672L1417 819 1586 707Z" fill="#add61e"/><path d="M782-313L935-207 1093-170Z" fill="#cd7219"/><path d="M1343 941L1264 1063 1468 1208Z" fill="#95ca1e"/><path d="M1449-299L1376-226 1506-97Z" fill="#b6831c"/><path d="M1301 1501L1237 1591 1542 1552Z" fill="#82ba65"/><path d="M1542 1552L1237 1591 1553 1710Z" fill="#7aaf6a"/><path d="M1237 1591L1269 1771 1553 1710Z" fill="#87a36f"/><path d="M1248 494L1406 672 1555 490Z" fill="#ccd31b"/><path d="M1366 307L1248 494 1555 490Z" fill="#cfc617"/><path d="M1527 304L1366 307 1555 490Z" fill="#c6bf15"/><path d="M1486 131L1366 307 1527 304Z" fill="#c8b115"/><path d="M1269 1771L1451 1849 1553 1710Z" fill="#809674"/><path d="M1301 1961L1413 2079 1451 1849Z" fill="#928678"/><path d="M1093-170L1376-226 1449-299Z" fill="#bf811c"/><path d="M1386-55L1297 52 1486 131Z" fill="#cb941e"/><path d="M1376-226L1386-55 1506-97Z" fill="#be871e"/><path d="M1297 52L1366 307 1486 131Z" fill="#cea519"/><path d="M1264 1063L1332 1325 1468 1208Z" fill="#8fc11c"/><path d="M1269 1771L1301 1961 1451 1849Z" fill="#8d8c78"/><path d="M1103 1963L995 2099 1301 1961Z" fill="#af8379"/><path d="M1297 52L1208 297 1366 307Z" fill="#d8ad16"/><path d="M1301 1961L995 2099 1413 2079Z" fill="#a88179"/><path d="M1406 672L1064 738 1417 819Z" fill="#bfd71e"/><path d="M1064 738L1343 941 1417 819Z" fill="#b1d61e"/><path d="M1376-226L1093-170 1386-55Z" fill="#c8851d"/><path d="M1248 494L1064 738 1406 672Z" fill="#d6d81c"/><path d="M1264 1063L1099 1207 1332 1325Z" fill="#9dc21b"/><path d="M1208 297L1248 494 1366 307Z" fill="#dbbf14"/><path d="M1093-170L1297 52 1386-55Z" fill="#d28820"/><path d="M1093-170L1112 28 1297 52Z" fill="#dd8920"/><path d="M1098 512L1064 738 1248 494Z" fill="#e7d71b"/><path d="M1092 100L1208 297 1297 52Z" fill="#dfa31a"/><path d="M1179 1537L1301 1501 1332 1325Z" fill="#8fc058"/><path d="M1045 970L1264 1063 1343 941Z" fill="#a8d01e"/><path d="M1064 738L1045 970 1343 941Z" fill="#b7d61e"/><path d="M1099 1207L1179 1537 1332 1325Z" fill="#9bc144"/><path d="M28 2035L-128 2101 638 2036Z" fill="#a72166"/><path d="M1071 1806L1103 1963 1269 1771Z" fill="#9f8d78"/><path d="M1237 1591L1088 1694 1269 1771Z" fill="#98a570"/><path d="M1112 28L1092 100 1297 52Z" fill="#e0961e"/><path d="M1269 1771L1103 1963 1301 1961Z" fill="#9c8a78"/><path d="M1179 1537L1237 1591 1301 1501Z" fill="#91bc65"/><path d="M1099 1207L955 1400 1179 1537Z" fill="#a3be48"/><path d="M1208 297L1098 512 1248 494Z" fill="#e3c716"/><path d="M1060 1093L1099 1207 1264 1063Z" fill="#abc81c"/><path d="M1045 970L1060 1093 1264 1063Z" fill="#b0cd1d"/><path d="M1088 1694L1071 1806 1269 1771Z" fill="#9e9974"/><path d="M1092 100L1029 174 1208 297Z" fill="#e6a717"/><path d="M985 409L1098 512 1208 297Z" fill="#e8c114"/><path d="M1179 1537L1088 1694 1237 1591Z" fill="#9ab26a"/><path d="M985 409L1026 482 1098 512Z" fill="#e9c415"/><path d="M1029 174L985 409 1208 297Z" fill="#e8b310"/><path d="M1093-170L981-62 1112 28Z" fill="#dd821e"/><path d="M955 1400L1088 1694 1179 1537Z" fill="#9eb965"/><path d="M973 725L888 917 1045 970Z" fill="#becc1a"/><path d="M973 725L1045 970 1064 738Z" fill="#c6d01b"/><path d="M955 1400L855 1712 1088 1694Z" fill="#a1a866"/><path d="M1020 1790L1071 1806 1088 1694Z" fill="#a09473"/><path d="M973 725L1064 738 1098 512Z" fill="#ded21a"/><path d="M1026 482L973 725 1098 512Z" fill="#e8d019"/><path d="M889 1306L955 1400 1099 1207Z" fill="#a7b835"/><path d="M1060 1093L1007 1105 1099 1207Z" fill="#acc21a"/><path d="M1071 1806L1020 1790 1103 1963Z" fill="#a28877"/><path d="M981-62L1092 100 1112 28Z" fill="#e18b1e"/><path d="M1020 1790L775 1896 1103 1963Z" fill="#a57f74"/><path d="M775 1896L995 2099 1103 1963Z" fill="#ae7875"/><path d="M1007 1105L889 1306 1099 1207Z" fill="#aaba18"/><path d="M981-62L1029 174 1092 100Z" fill="#e3901b"/><path d="M935-207L981-62 1093-170Z" fill="#d57a1c"/><path d="M1045 970L1007 1105 1060 1093Z" fill="#b0c61a"/><path d="M855 1712L1020 1790 1088 1694Z" fill="#a1946f"/><path d="M775 1896L763 1965 995 2099Z" fill="#ad7071"/><path d="M756 1485L855 1712 955 1400Z" fill="#a1ac5e"/><path d="M756 1485L740 1575 855 1712Z" fill="#a39d61"/><path d="M722 473L973 725 1026 482Z" fill="#e8c515"/><path d="M981-62L716 24 1029 174Z" fill="#e1831a"/><path d="M716 24L705 139 1029 174Z" fill="#e38516"/><path d="M737 343L985 409 1029 174Z" fill="#e8a90d"/><path d="M888 917L1007 1105 1045 970Z" fill="#b4c61a"/><path d="M855 1712L775 1896 1020 1790Z" fill="#a18170"/><path d="M985 409L722 473 1026 482Z" fill="#e8b912"/><path d="M705 139L737 343 1029 174Z" fill="#e59610"/><path d="M763 1965L638 2036 995 2099Z" fill="#b16970"/><path d="M717 1168L889 1306 1007 1105Z" fill="#abb215"/><path d="M888 917L717 1168 1007 1105Z" fill="#b2ba17"/><path d="M722 473L733 776 973 725Z" fill="#dfc114"/><path d="M733 776L888 917 973 725Z" fill="#c8c517"/><path d="M737 343L722 473 985 409Z" fill="#e8ad0e"/><path d="M935-207L716 24 981-62Z" fill="#d9731b"/><path d="M328 1958L28 2035 638 2036Z" fill="#a83e68"/><path d="M889 1306L756 1485 955 1400Z" fill="#a5b047"/><path d="M782-313L716 24 935-207Z" fill="#d26a18"/><path d="M264-295L537-201 782-313Z" fill="#c34b16"/><path d="M733 776L683 870 888 917Z" fill="#c1be16"/><path d="M683 870L717 1168 888 917Z" fill="#b6b815"/><path d="M676 1275L756 1485 889 1306Z" fill="#a8aa3c"/><path d="M717 1168L676 1275 889 1306Z" fill="#aaa922"/><path d="M722 473L555 645 733 776Z" fill="#e3b712"/><path d="M537-201L716 24 782-313Z" fill="#d05f17"/><path d="M562 1635L775 1896 855 1712Z" fill="#a27f69"/><path d="M740 1575L562 1635 855 1712Z" fill="#a39063"/><path d="M683 870L473 1093 717 1168Z" fill="#b4aa13"/><path d="M676 1275L599 1310 756 1485Z" fill="#a8a33b"/><path d="M562 1635L494 1839 775 1896Z" fill="#a16f69"/><path d="M638 2036L763 1965 775 1896Z" fill="#ac686e"/><path d="M494 1839L638 2036 775 1896Z" fill="#a8646c"/><path d="M570 855L473 1093 683 870Z" fill="#b9ac16"/><path d="M537-201L485-5 716 24Z" fill="#d7581a"/><path d="M592 423L722 473 737 343Z" fill="#e7a40b"/><path d="M705 139L592 423 737 343Z" fill="#e69608"/><path d="M500 1511L740 1575 756 1485Z" fill="#a3a059"/><path d="M599 1310L500 1511 756 1485Z" fill="#a69e4a"/><path d="M490 89L592 423 705 139Z" fill="#e38310"/><path d="M592 423L555 645 722 473Z" fill="#e8aa10"/><path d="M500 1511L562 1635 740 1575Z" fill="#a3935c"/><path d="M490 89L387 228 592 423Z" fill="#e27d13"/><path d="M570 855L683 870 733 776Z" fill="#c5b713"/><path d="M555 645L570 855 733 776Z" fill="#d0b314"/><path d="M264-295L351-222 537-201Z" fill="#c23a19"/><path d="M387 228L532 426 592 423Z" fill="#e48d12"/><path d="M490 89L705 139 716 24Z" fill="#e07216"/><path d="M599 1310L676 1275 717 1168Z" fill="#aba321"/><path d="M473 1093L599 1310 717 1168Z" fill="#ad9e13"/><path d="M485-5L490 89 716 24Z" fill="#dd6319"/><path d="M473 1093L443 1205 599 1310Z" fill="#ab9616"/><path d="M532 426L555 645 592 423Z" fill="#e7a213"/><path d="M532 426L436 578 555 645Z" fill="#e6a416"/><path d="M442 1701L494 1839 562 1635Z" fill="#a17064"/><path d="M494 1839L328 1958 638 2036Z" fill="#a6546a"/><path d="M555 645L451 835 570 855Z" fill="#ccaa18"/><path d="M451 835L473 1093 570 855Z" fill="#b9a619"/><path d="M443 1205L500 1511 599 1310Z" fill="#a89538"/><path d="M442 1701L421 1773 494 1839Z" fill="#9f6366"/><path d="M443 1205L252 1389 500 1511Z" fill="#a68b3d"/><path d="M252 1389L276 1457 500 1511Z" fill="#a3864b"/><path d="M387 228L341 393 532 426Z" fill="#e28314"/><path d="M388-47L485-5 537-201Z" fill="#d24b1b"/><path d="M436 578L451 835 555 645Z" fill="#d9a619"/><path d="M500 1511L442 1701 562 1635Z" fill="#a2835e"/><path d="M341 393L436 578 532 426Z" fill="#e49316"/><path d="M351-222L388-47 537-201Z" fill="#cb431a"/><path d="M436 578L276 646 451 835Z" fill="#d89e1b"/><path d="M451 835L173 978 473 1093Z" fill="#b6981c"/><path d="M485-5L388-47 490 89Z" fill="#d8521b"/><path d="M421 1773L328 1958 494 1839Z" fill="#9f5468"/><path d="M276 1457L442 1701 500 1511Z" fill="#a28559"/><path d="M329 1179L252 1389 443 1205Z" fill="#a98727"/><path d="M173 978L329 1179 473 1093Z" fill="#af8d1b"/><path d="M388-47L265 96 490 89Z" fill="#d8501c"/><path d="M265 96L387 228 490 89Z" fill="#dc601a"/><path d="M276 646L228 712 451 835Z" fill="#d1981d"/><path d="M329 1179L443 1205 473 1093Z" fill="#ad9018"/><path d="M276 1457L126 1751 442 1701Z" fill="#9f6c5d"/><path d="M228 712L173 978 451 835Z" fill="#c1951e"/><path d="M341 393L276 646 436 578Z" fill="#e3931b"/><path d="M126 1751L170 1803 442 1701Z" fill="#9c5462"/><path d="M170 1803L421 1773 442 1701Z" fill="#9d5c64"/><path d="M103 1960L28 2035 328 1958Z" fill="#a12b65"/><path d="M250 1197L252 1389 329 1179Z" fill="#a88126"/><path d="M170 1803L328 1958 421 1773Z" fill="#9c4a67"/><path d="M173 978L142 1114 250 1197Z" fill="#ae801e"/><path d="M173 978L250 1197 329 1179Z" fill="#ad851c"/><path d="M97 546L276 646 341 393Z" fill="#e1871d"/><path d="M97 282L341 393 387 228Z" fill="#df6f17"/><path d="M351-222L178-40 388-47Z" fill="#cc331d"/><path d="M178-40L265 96 388-47Z" fill="#d4391e"/><path d="M265 96L97 282 387 228Z" fill="#da5d1a"/><path d="M264-295L178-40 351-222Z" fill="#c3291c"/><path d="M64 1712L126 1751 276 1457Z" fill="#9d615b"/><path d="M44 402L97 546 341 393Z" fill="#de771d"/><path d="M97 282L44 402 341 393Z" fill="#dc6c1b"/><path d="M-241-125L-156-222 -77-324Z" fill="#ab0917"/><path d="M170 1803L103 1960 328 1958Z" fill="#9e3866"/><path d="M-8 790L173 978 228 712Z" fill="#bf8a20"/><path d="M250 1197L61 1303 252 1389Z" fill="#a6792f"/><path d="M45-31L178-40 264-295Z" fill="#c6181d"/><path d="M-77-324L45-31 264-295Z" fill="#b9111a"/><path d="M252 1389L30 1384 276 1457Z" fill="#a37844"/><path d="M30 1384L64 1712 276 1457Z" fill="#9d7654"/><path d="M97 546L228 712 276 646Z" fill="#dc8c20"/><path d="M-21 141L97 282 265 96Z" fill="#d44d1b"/><path d="M178-40L45-31 265 96Z" fill="#d0281f"/><path d="M45-31L-21 141 265 96Z" fill="#cf361d"/><path d="M142 1114L61 1303 250 1197Z" fill="#a6781c"/><path d="M61 1303L30 1384 252 1389Z" fill="#a1763a"/><path d="M66 1907L103 1960 170 1803Z" fill="#993664"/><path d="M97 546L-8 790 228 712Z" fill="#d0881f"/><path d="M44 402L23 477 97 546Z" fill="#d8771c"/><path d="M-8 790L-95 859 173 978Z" fill="#b2871e"/><path d="M-41 1090L142 1114 173 978Z" fill="#aa7f1d"/><path d="M126 1751L66 1907 170 1803Z" fill="#953e64"/><path d="M-95 859L-41 1090 173 978Z" fill="#aa821d"/><path d="M-77-324L-156-222 45-31Z" fill="#b30f19"/><path d="M30 1384L-226 1620 64 1712Z" fill="#926854"/><path d="M64 1712L66 1907 126 1751Z" fill="#944362"/><path d="M-41 1090L61 1303 142 1114Z" fill="#a2771b"/><path d="M23 477L-8 790 97 546Z" fill="#d7851e"/><path d="M66 1907L28 2035 103 1960Z" fill="#9b2c63"/><path d="M64 1712L-218 1818 66 1907Z" fill="#8d3c61"/><path d="M-132 326L44 402 97 282Z" fill="#d36518"/><path d="M-21 141L-132 326 97 282Z" fill="#cf5717"/><path d="M-187 790L-8 790 23 477Z" fill="#c7831d"/><path d="M-203 1390L-226 1620 30 1384Z" fill="#906f47"/><path d="M-41 1090L-151 1275 61 1303Z" fill="#9b721d"/><path d="M-218 1818L28 2035 66 1907Z" fill="#923061"/><path d="M-226 1620L-218 1818 64 1712Z" fill="#8b4c5b"/><path d="M-151 1275L30 1384 61 1303Z" fill="#9a7231"/><path d="M-294 430L-187 790 23 477Z" fill="#cd7d1b"/><path d="M-218 1818L-128 2101 28 2035Z" fill="#922660"/><path d="M-241-125L-21 141 45-31Z" fill="#c21e1c"/><path d="M-156-222L-241-125 45-31Z" fill="#b61019"/><path d="M-132 326L23 477 44 402Z" fill="#d36d19"/><path d="M-151 1275L-203 1390 30 1384Z" fill="#957036"/><path d="M-132 326L-294 430 23 477Z" fill="#cc6b18"/><path d="M-95 859L-235 1037 -41 1090Z" fill="#a17d1b"/><path d="M-241-125L-213 213 -21 141Z" fill="#c13319"/><path d="M-213 213L-132 326 -21 141Z" fill="#c95117"/><path d="M-187 790L-95 859 -8 790Z" fill="#b3831c"/><path d="M-235 1037L-151 1275 -41 1090Z" fill="#997419"/><path d="M-219 822L-235 1037 -95 859Z" fill="#a3811b"/><path d="M-187 790L-219 822 -95 859Z" fill="#af821b"/><path d="M-213 213L-294 430 -132 326Z" fill="#c65d14"/><path d="M-294 430L-219 822 -187 790Z" fill="#bd7f1b"/><path d="M-235 1037L-203 1390 -151 1275Z" fill="#926e1e"/><path d="M-241-125L-294 430 -213 213Z" fill="#c04516"/><path d="M-235 1037L-226 1620 -203 1390Z" fill="#8f6d33"/><path d="M-294 430L-235 1037 -219 822Z" fill="#b27f1a"/><path d="M-235 1037L-294 430 -226 1620Z" fill="#997819"/></svg>