<svg xmlns="http://www.w3.org/2000/svg" width="3200" height="1800"><path d="M-77,-324L264,-295L782,-313Z" fill="#ba2f18" stroke="#ba2f18" stroke-width="1.51"/><path d="M1449,-299L1700,-259L2021,-263Z" fill="#9e7c1a" stroke="#9e7c1a" stroke-width="1.51"/><path d="M1413,2079L995,2099L2062,2110Z" fill="#948078" stroke="#948078" stroke-width="1.51"/><path d="M782,-313L1449,-299L2271,-292Z" fill="#a8801a" stroke="#a8801a" stroke-width="1.51"/><path d="M1449,-299L2021,-263L2271,-292Z" fill="#967418" stroke="#967418" stroke-width="1.51"/><path d="M2437,2073L2062,2110L2703,2109Z" fill="#686d8f" stroke="#686d8f" stroke-width="1.51"/><path d="M2271,-292L2764,-197L3063,-278Z" fill="#8a5d55" stroke="#8a5d55" stroke-width="1.51"/><path d="M3325,941L3429,1108L3441,724Z" fill="#858077" stroke="#858077" stroke-width="1.51"/><path d="M3222,435L3441,724L3449,445Z" fill="#b37a77" stroke="#b37a77" stroke-width="1.51"/><path d="M2703,2109L2062,2110L3466,2125Z" fill="#5a58a2" stroke="#5a58a2" stroke-width="1.51"/><path d="M3010,2055L2703,2109L3466,2125Z" fill="#4d3aa9" stroke="#4d3aa9" stroke-width="1.51"/><path d="M3444,1885L3186,1963L3466,2125Z" fill="#5832a9" stroke="#5832a9" stroke-width="1.51"/><path d="M3446,1711L3444,1885L3466,2125Z" fill="#5534a9" stroke="#5534a9" stroke-width="1.51"/><path d="M3401,51L3231,256L3466,406Z" fill="#b0566c" stroke="#b0566c" stroke-width="1.51"/><path d="M3449,445L3441,724L3466,406Z" fill="#b77577" stroke="#b77577" stroke-width="1.51"/><path d="M3429,1108L3282,1244L3495,1290Z" fill="#776e70" stroke="#776e70" stroke-width="1.51"/><path d="M3282,1244L3429,1485L3495,1290Z" fill="#6d6e83" stroke="#6d6e83" stroke-width="1.51"/><path d="M3429,1485L3446,1711L3495,1290Z" fill="#616d9a" stroke="#616d9a" stroke-width="1.51"/><path d="M3466,406L3441,724L3495,1290Z" fill="#997e78" stroke="#997e78" stroke-width="1.51"/><path d="M3441,724L3429,1108L3495,1290Z" fill="#837774" stroke="#837774" stroke-width="1.51"/><path d="M3446,1711L3466,2125L3495,1290Z" fill="#564ea5" stroke="#564ea5" stroke-width="1.51"/><path d="M3319,-219L3401,51L3495,-129Z" fill="#a11b63" stroke="#a11b63" stroke-width="1.51"/><path d="M3401,51L3466,406L3495,-129Z" fill="#af3969" stroke="#af3969" stroke-width="1.51"/><path d="M3466,406L3495,1290L3495,-129Z" fill="#b97477" stroke="#b97477" stroke-width="1.51"/><path d="M3319,-219L3241,-177L3401,51Z" fill="#9d2463" stroke="#9d2463" stroke-width="1.51"/><path d="M3222,435L3191,749L3441,724Z" fill="#a88479" stroke="#a88479" stroke-width="1.51"/><path d="M3429,1485L3216,1686L3446,1711Z" fill="#525fa2" stroke="#525fa2" stroke-width="1.51"/><path d="M3191,1770L3444,1885L3446,1711Z" fill="#4746a8" stroke="#4746a8" stroke-width="1.51"/><path d="M3186,1963L3010,2055L3466,2125Z" fill="#5435a9" stroke="#5435a9" stroke-width="1.51"/><path d="M3222,435L3449,445L3466,406Z" fill="#b36e73" stroke="#b36e73" stroke-width="1.51"/><path d="M3231,256L3222,435L3466,406Z" fill="#af6970" stroke="#af6970" stroke-width="1.51"/><path d="M3191,749L3230,912L3325,941Z" fill="#828677" stroke="#828677" stroke-width="1.51"/><path d="M3266,1138L3282,1244L3429,1108Z" fill="#757471" stroke="#757471" stroke-width="1.51"/><path d="M3191,749L3325,941L3441,724Z" fill="#908378" stroke="#908378" stroke-width="1.51"/><path d="M3216,1686L3191,1770L3446,1711Z" fill="#4553a5" stroke="#4553a5" stroke-width="1.51"/><path d="M3325,941L3266,1138L3429,1108Z" fill="#7b7973" stroke="#7b7973" stroke-width="1.51"/><path d="M3191,1770L3186,1963L3444,1885Z" fill="#4241a9" stroke="#4241a9" stroke-width="1.51"/><path d="M3135,1556L3216,1686L3429,1485Z" fill="#4b6a9f" stroke="#4b6a9f" stroke-width="1.51"/><path d="M3182,204L3231,256L3401,51Z" fill="#a9506a" stroke="#a9506a" stroke-width="1.51"/><path d="M3282,1244L3135,1556L3429,1485Z" fill="#5b7390" stroke="#5b7390" stroke-width="1.51"/><path d="M3241,-177L3124,-27L3401,51Z" fill="#a02c65" stroke="#a02c65" stroke-width="1.51"/><path d="M3124,-27L3182,204L3401,51Z" fill="#a54268" stroke="#a54268" stroke-width="1.51"/><path d="M3048,481L3191,749L3222,435Z" fill="#a78577" stroke="#a78577" stroke-width="1.51"/><path d="M3114,-82L3124,-27L3241,-177Z" fill="#983263" stroke="#983263" stroke-width="1.51"/><path d="M3022,1343L3135,1556L3282,1244Z" fill="#567789" stroke="#567789" stroke-width="1.51"/><path d="M3063,-278L3241,-177L3319,-219Z" fill="#8f2b60" stroke="#8f2b60" stroke-width="1.51"/><path d="M3230,912L3266,1138L3325,941Z" fill="#798075" stroke="#798075" stroke-width="1.51"/><path d="M3119,1924L3186,1963L3191,1770Z" fill="#3944a9" stroke="#3944a9" stroke-width="1.51"/><path d="M3048,481L3033,727L3191,749Z" fill="#9a8c78" stroke="#9a8c78" stroke-width="1.51"/><path d="M3230,912L3017,1001L3266,1138Z" fill="#728174" stroke="#728174" stroke-width="1.51"/><path d="M3266,1138L3022,1343L3282,1244Z" fill="#677674" stroke="#677674" stroke-width="1.51"/><path d="M3017,1001L3022,1343L3266,1138Z" fill="#657b70" stroke="#657b70" stroke-width="1.51"/><path d="M3011,270L3048,481L3222,435Z" fill="#a47670" stroke="#a47670" stroke-width="1.51"/><path d="M3191,749L3025,874L3230,912Z" fill="#7f8977" stroke="#7f8977" stroke-width="1.51"/><path d="M3011,270L3222,435L3231,256Z" fill="#a76b6e" stroke="#a76b6e" stroke-width="1.51"/><path d="M3182,204L3011,270L3231,256Z" fill="#a6616b" stroke="#a6616b" stroke-width="1.51"/><path d="M3063,-278L3114,-82L3241,-177Z" fill="#8f3161" stroke="#8f3161" stroke-width="1.51"/><path d="M3022,1343L2988,1398L3135,1556Z" fill="#447990" stroke="#447990" stroke-width="1.51"/><path d="M3025,874L3017,1001L3230,912Z" fill="#6f8976" stroke="#6f8976" stroke-width="1.51"/><path d="M3124,-27L2950,71L3182,204Z" fill="#9e4c68" stroke="#9e4c68" stroke-width="1.51"/><path d="M3135,1556L3043,1657L3216,1686Z" fill="#3a66a1" stroke="#3a66a1" stroke-width="1.51"/><path d="M3043,1657L3191,1770L3216,1686Z" fill="#385ba5" stroke="#385ba5" stroke-width="1.51"/><path d="M3017,1001L2876,1121L3022,1343Z" fill="#60836e" stroke="#60836e" stroke-width="1.51"/><path d="M2950,71L3011,270L3182,204Z" fill="#9f5c6a" stroke="#9f5c6a" stroke-width="1.51"/><path d="M3119,1924L3010,2055L3186,1963Z" fill="#4140a9" stroke="#4140a9" stroke-width="1.51"/><path d="M3043,1657L3119,1924L3191,1770Z" fill="#2c50a8" stroke="#2c50a8" stroke-width="1.51"/><path d="M3033,727L3025,874L3191,749Z" fill="#858c77" stroke="#858c77" stroke-width="1.51"/><path d="M3043,1657L2877,1904L3119,1924Z" fill="#154ea9" stroke="#154ea9" stroke-width="1.51"/><path d="M2988,1398L3043,1657L3135,1556Z" fill="#32779e" stroke="#32779e" stroke-width="1.51"/><path d="M3114,-82L2950,71L3124,-27Z" fill="#9a3d65" stroke="#9a3d65" stroke-width="1.51"/><path d="M2884,511L3033,727L3048,481Z" fill="#a09076" stroke="#a09076" stroke-width="1.51"/><path d="M3063,-278L2764,-197L3114,-82Z" fill="#8b3f5f" stroke="#8b3f5f" stroke-width="1.51"/><path d="M2877,1904L3010,2055L3119,1924Z" fill="#3847a9" stroke="#3847a9" stroke-width="1.51"/><path d="M2764,-197L2950,71L3114,-82Z" fill="#964761" stroke="#964761" stroke-width="1.51"/><path d="M2271,-292L2582,-171L2764,-197Z" fill="#8f6f4f" stroke="#8f6f4f" stroke-width="1.51"/><path d="M2820,309L2884,511L3011,270Z" fill="#a2826b" stroke="#a2826b" stroke-width="1.51"/><path d="M2876,1121L2812,1214L3022,1343Z" fill="#5b866d" stroke="#5b866d" stroke-width="1.51"/><path d="M2899,834L3025,874L3033,727Z" fill="#7c9275" stroke="#7c9275" stroke-width="1.51"/><path d="M2988,1398L2865,1643L3043,1657Z" fill="#2d799d" stroke="#2d799d" stroke-width="1.51"/><path d="M2865,1643L2877,1904L3043,1657Z" fill="#2764a3" stroke="#2764a3" stroke-width="1.51"/><path d="M3011,270L2884,511L3048,481Z" fill="#a18070" stroke="#a18070" stroke-width="1.51"/><path d="M2271,-292L2505,-178L2582,-171Z" fill="#916f46" stroke="#916f46" stroke-width="1.51"/><path d="M2764,-197L2751,20L2950,71Z" fill="#9b575f" stroke="#9b575f" stroke-width="1.51"/><path d="M2950,71L2820,198L3011,270Z" fill="#a06966" stroke="#a06966" stroke-width="1.51"/><path d="M2884,511L2799,771L3033,727Z" fill="#939a73" stroke="#939a73" stroke-width="1.51"/><path d="M2798,1393L2865,1643L2988,1398Z" fill="#368893" stroke="#368893" stroke-width="1.51"/><path d="M2899,834L3017,1001L3025,874Z" fill="#6b9275" stroke="#6b9275" stroke-width="1.51"/><path d="M2799,771L2899,834L3033,727Z" fill="#819a73" stroke="#819a73" stroke-width="1.51"/><path d="M2812,1214L2988,1398L3022,1343Z" fill="#52837c" stroke="#52837c" stroke-width="1.51"/><path d="M2812,1214L2798,1393L2988,1398Z" fill="#4f8a7c" stroke="#4f8a7c" stroke-width="1.51"/><path d="M2899,834L2876,1121L3017,1001Z" fill="#679171" stroke="#679171" stroke-width="1.51"/><path d="M2820,198L2820,309L3011,270Z" fill="#a27966" stroke="#a27966" stroke-width="1.51"/><path d="M2877,1904L2752,1953L3010,2055Z" fill="#4153a6" stroke="#4153a6" stroke-width="1.51"/><path d="M2752,1953L2703,2109L3010,2055Z" fill="#4d55a4" stroke="#4d55a4" stroke-width="1.51"/><path d="M2737,702L2799,771L2884,511Z" fill="#94a56f" stroke="#94a56f" stroke-width="1.51"/><path d="M2686,965L2876,1121L2899,834Z" fill="#659d6d" stroke="#659d6d" stroke-width="1.51"/><path d="M2751,20L2820,198L2950,71Z" fill="#9f6762" stroke="#9f6762" stroke-width="1.51"/><path d="M2798,1393L2635,1564L2865,1643Z" fill="#299196" stroke="#299196" stroke-width="1.51"/><path d="M2865,1643L2699,1940L2877,1904Z" fill="#2761a4" stroke="#2761a4" stroke-width="1.51"/><path d="M2699,1940L2752,1953L2877,1904Z" fill="#3e60a3" stroke="#3e60a3" stroke-width="1.51"/><path d="M2700,537L2737,702L2884,511Z" fill="#a0a86e" stroke="#a0a86e" stroke-width="1.51"/><path d="M2820,309L2700,537L2884,511Z" fill="#a2976a" stroke="#a2976a" stroke-width="1.51"/><path d="M2799,771L2686,965L2899,834Z" fill="#71a56e" stroke="#71a56e" stroke-width="1.51"/><path d="M2581,1604L2699,1940L2865,1643Z" fill="#2d799e" stroke="#2d799e" stroke-width="1.51"/><path d="M2635,1564L2581,1604L2865,1643Z" fill="#2b8e97" stroke="#2b8e97" stroke-width="1.51"/><path d="M2686,965L2812,1214L2876,1121Z" fill="#5f9869" stroke="#5f9869" stroke-width="1.51"/><path d="M2686,965L2595,1104L2812,1214Z" fill="#5ca266" stroke="#5ca266" stroke-width="1.51"/><path d="M2695,1246L2798,1393L2812,1214Z" fill="#529372" stroke="#529372" stroke-width="1.51"/><path d="M2739,278L2700,537L2820,309Z" fill="#a39465" stroke="#a39465" stroke-width="1.51"/><path d="M2635,-120L2751,20L2764,-197Z" fill="#976159" stroke="#976159" stroke-width="1.51"/><path d="M2595,1104L2695,1246L2812,1214Z" fill="#589c63" stroke="#589c63" stroke-width="1.51"/><path d="M2751,20L2600,55L2820,198Z" fill="#a0745d" stroke="#a0745d" stroke-width="1.51"/><path d="M2600,55L2739,278L2820,198Z" fill="#a2805f" stroke="#a2805f" stroke-width="1.51"/><path d="M2820,198L2739,278L2820,309Z" fill="#a38463" stroke="#a38463" stroke-width="1.51"/><path d="M2737,702L2686,965L2799,771Z" fill="#79ab6c" stroke="#79ab6c" stroke-width="1.51"/><path d="M2695,1246L2485,1382L2798,1393Z" fill="#479e76" stroke="#479e76" stroke-width="1.51"/><path d="M2485,1382L2635,1564L2798,1393Z" fill="#34a086" stroke="#34a086" stroke-width="1.51"/><path d="M2524,681L2686,965L2737,702Z" fill="#7cb468" stroke="#7cb468" stroke-width="1.51"/><path d="M2529,523L2700,537L2739,278Z" fill="#a1a663" stroke="#a1a663" stroke-width="1.51"/><path d="M2462,376L2529,523L2739,278Z" fill="#a2a95e" stroke="#a2a95e" stroke-width="1.51"/><path d="M2600,55L2522,175L2739,278Z" fill="#a2895a" stroke="#a2895a" stroke-width="1.51"/><path d="M2699,1940L2703,2109L2752,1953Z" fill="#4c61a2" stroke="#4c61a2" stroke-width="1.51"/><path d="M2582,-171L2635,-120L2764,-197Z" fill="#936556" stroke="#936556" stroke-width="1.51"/><path d="M2581,1604L2393,1887L2699,1940Z" fill="#2d7c9d" stroke="#2d7c9d" stroke-width="1.51"/><path d="M2700,537L2524,681L2737,702Z" fill="#96b669" stroke="#96b669" stroke-width="1.51"/><path d="M2635,-120L2600,55L2751,20Z" fill="#9f6c59" stroke="#9f6c59" stroke-width="1.51"/><path d="M2522,175L2462,376L2739,278Z" fill="#a49d5a" stroke="#a49d5a" stroke-width="1.51"/><path d="M2468,1609L2393,1887L2581,1604Z" fill="#378d90" stroke="#378d90" stroke-width="1.51"/><path d="M2524,681L2399,861L2686,965Z" fill="#6ebf61" stroke="#6ebf61" stroke-width="1.51"/><path d="M2529,523L2524,681L2700,537Z" fill="#9ebc65" stroke="#9ebc65" stroke-width="1.51"/><path d="M2699,1940L2437,2073L2703,2109Z" fill="#546a9f" stroke="#546a9f" stroke-width="1.51"/><path d="M2393,1887L2437,2073L2699,1940Z" fill="#4f7499" stroke="#4f7499" stroke-width="1.51"/><path d="M2595,1104L2485,1382L2695,1246Z" fill="#4fa664" stroke="#4fa664" stroke-width="1.51"/><path d="M2399,861L2595,1104L2686,965Z" fill="#5bb862" stroke="#5bb862" stroke-width="1.51"/><path d="M2485,1382L2468,1609L2581,1604Z" fill="#21a78b" stroke="#21a78b" stroke-width="1.51"/><path d="M2364,1198L2485,1382L2595,1104Z" fill="#52aa58" stroke="#52aa58" stroke-width="1.51"/><path d="M2399,861L2370,1111L2595,1104Z" fill="#5eb655" stroke="#5eb655" stroke-width="1.51"/><path d="M2502,-5L2600,55L2635,-120Z" fill="#9f7456" stroke="#9f7456" stroke-width="1.51"/><path d="M2582,-171L2502,-5L2635,-120Z" fill="#997154" stroke="#997154" stroke-width="1.51"/><path d="M2485,1382L2581,1604L2635,1564Z" fill="#16a78f" stroke="#16a78f" stroke-width="1.51"/><path d="M638,2036L-128,2101L995,2099Z" fill="#b04a6b" stroke="#b04a6b" stroke-width="1.51"/><path d="M2505,-178L2502,-5L2582,-171Z" fill="#987350" stroke="#987350" stroke-width="1.51"/><path d="M2370,1111L2364,1198L2595,1104Z" fill="#59ae52" stroke="#59ae52" stroke-width="1.51"/><path d="M2502,-5L2522,175L2600,55Z" fill="#a28555" stroke="#a28555" stroke-width="1.51"/><path d="M1676,2033L1413,2079L2062,2110Z" fill="#837c75" stroke="#837c75" stroke-width="1.51"/><path d="M2327,1608L2393,1887L2468,1609Z" fill="#418d88" stroke="#418d88" stroke-width="1.51"/><path d="M2327,1608L2468,1609L2485,1382Z" fill="#32a683" stroke="#32a683" stroke-width="1.51"/><path d="M2268,1539L2327,1608L2485,1382Z" fill="#3aa979" stroke="#3aa979" stroke-width="1.51"/><path d="M2158,239L2462,376L2522,175Z" fill="#a79e45" stroke="#a79e45" stroke-width="1.51"/><path d="M2502,-5L2187,100L2522,175Z" fill="#a58746" stroke="#a58746" stroke-width="1.51"/><path d="M2300,753L2399,861L2524,681Z" fill="#82bf52" stroke="#82bf52" stroke-width="1.51"/><path d="M2318,453L2300,753L2524,681Z" fill="#9bc14f" stroke="#9bc14f" stroke-width="1.51"/><path d="M2318,453L2524,681L2529,523Z" fill="#a1bd57" stroke="#a1bd57" stroke-width="1.51"/><path d="M2462,376L2318,453L2529,523Z" fill="#a3b251" stroke="#a3b251" stroke-width="1.51"/><path d="M2187,100L2158,239L2522,175Z" fill="#a89239" stroke="#a89239" stroke-width="1.51"/><path d="M2158,239L2295,416L2462,376Z" fill="#a8a73c" stroke="#a8a73c" stroke-width="1.51"/><path d="M2177,34L2502,-5L2505,-178Z" fill="#a17644" stroke="#a17644" stroke-width="1.51"/><path d="M2177,34L2187,100L2502,-5Z" fill="#a68139" stroke="#a68139" stroke-width="1.51"/><path d="M2271,-292L2177,34L2505,-178Z" fill="#9a7339" stroke="#9a7339" stroke-width="1.51"/><path d="M2327,1608L2206,1757L2393,1887Z" fill="#4c8682" stroke="#4c8682" stroke-width="1.51"/><path d="M2393,1887L2289,1967L2437,2073Z" fill="#5c738c" stroke="#5c738c" stroke-width="1.51"/><path d="M2364,1198L2206,1312L2485,1382Z" fill="#54aa56" stroke="#54aa56" stroke-width="1.51"/><path d="M2206,1312L2268,1539L2485,1382Z" fill="#4ba965" stroke="#4ba965" stroke-width="1.51"/><path d="M2295,416L2318,453L2462,376Z" fill="#a6af46" stroke="#a6af46" stroke-width="1.51"/><path d="M2243,817L2370,1111L2399,861Z" fill="#67bc48" stroke="#67bc48" stroke-width="1.51"/><path d="M2289,1967L2062,2110L2437,2073Z" fill="#6c7081" stroke="#6c7081" stroke-width="1.51"/><path d="M2140,513L2300,753L2318,453Z" fill="#a5c03d" stroke="#a5c03d" stroke-width="1.51"/><path d="M2243,817L2174,1174L2370,1111Z" fill="#65b53d" stroke="#65b53d" stroke-width="1.51"/><path d="M2206,1757L2289,1967L2393,1887Z" fill="#547984" stroke="#547984" stroke-width="1.51"/><path d="M2300,753L2243,817L2399,861Z" fill="#7cbf45" stroke="#7cbf45" stroke-width="1.51"/><path d="M2174,1174L2364,1198L2370,1111Z" fill="#5ead40" stroke="#5ead40" stroke-width="1.51"/><path d="M2174,1174L2206,1312L2364,1198Z" fill="#5daa3c" stroke="#5daa3c" stroke-width="1.51"/><path d="M1995,1055L2174,1174L2243,817Z" fill="#6ab729" stroke="#6ab729" stroke-width="1.51"/><path d="M2021,-263L2177,34L2271,-292Z" fill="#9a7225" stroke="#9a7225" stroke-width="1.51"/><path d="M2140,513L2064,693L2300,753Z" fill="#9cc12f" stroke="#9cc12f" stroke-width="1.51"/><path d="M2268,1539L2206,1757L2327,1608Z" fill="#4b9878" stroke="#4b9878" stroke-width="1.51"/><path d="M2295,416L2140,513L2318,453Z" fill="#a7b438" stroke="#a7b438" stroke-width="1.51"/><path d="M2028,809L1995,1055L2243,817Z" fill="#71bf21" stroke="#71bf21" stroke-width="1.51"/><path d="M2061,1702L2206,1757L2268,1539Z" fill="#539270" stroke="#539270" stroke-width="1.51"/><path d="M2206,1312L2046,1387L2268,1539Z" fill="#54a955" stroke="#54a955" stroke-width="1.51"/><path d="M2206,1757L2006,1881L2289,1967Z" fill="#5d7878" stroke="#5d7878" stroke-width="1.51"/><path d="M2158,239L2140,513L2295,416Z" fill="#a9ad2e" stroke="#a9ad2e" stroke-width="1.51"/><path d="M2064,693L2243,817L2300,753Z" fill="#89c035" stroke="#89c035" stroke-width="1.51"/><path d="M2006,1881L2062,2110L2289,1967Z" fill="#6d7374" stroke="#6d7374" stroke-width="1.51"/><path d="M1963,1003L1995,1055L2028,809Z" fill="#70bf1d" stroke="#70bf1d" stroke-width="1.51"/><path d="M2046,1387L2061,1702L2268,1539Z" fill="#4fa664" stroke="#4fa664" stroke-width="1.51"/><path d="M2021,-263L1942,-174L2177,34Z" fill="#9f751a" stroke="#9f751a" stroke-width="1.51"/><path d="M1942,-174L1983,13L2177,34Z" fill="#a7791c" stroke="#a7791c" stroke-width="1.51"/><path d="M2064,693L2028,809L2243,817Z" fill="#88c025" stroke="#88c025" stroke-width="1.51"/><path d="M2075,200L2140,513L2158,239Z" fill="#aba51f" stroke="#aba51f" stroke-width="1.51"/><path d="M2075,200L2158,239L2187,100Z" fill="#aa9423" stroke="#aa9423" stroke-width="1.51"/><path d="M2061,1702L2006,1881L2206,1757Z" fill="#5c826e" stroke="#5c826e" stroke-width="1.51"/><path d="M2174,1174L2057,1275L2206,1312Z" fill="#5fab33" stroke="#5fab33" stroke-width="1.51"/><path d="M2057,1275L2046,1387L2206,1312Z" fill="#5daa3c" stroke="#5daa3c" stroke-width="1.51"/><path d="M1852,2015L1676,2033L2062,2110Z" fill="#7d7873" stroke="#7d7873" stroke-width="1.51"/><path d="M2075,200L1858,539L2140,513Z" fill="#acb216" stroke="#acb216" stroke-width="1.51"/><path d="M2177,34L1983,13L2187,100Z" fill="#a98322" stroke="#a98322" stroke-width="1.51"/><path d="M1983,13L2075,200L2187,100Z" fill="#aa8a1a" stroke="#aa8a1a" stroke-width="1.51"/><path d="M2046,1387L1867,1562L2061,1702Z" fill="#56a85f" stroke="#56a85f" stroke-width="1.51"/><path d="M1806,271L1858,539L2075,200Z" fill="#b0ae13" stroke="#b0ae13" stroke-width="1.51"/><path d="M1995,1055L2057,1275L2174,1174Z" fill="#64ad1a" stroke="#64ad1a" stroke-width="1.51"/><path d="M1950,855L1963,1003L2028,809Z" fill="#75c31e" stroke="#75c31e" stroke-width="1.51"/><path d="M1858,539L2064,693L2140,513Z" fill="#aac31b" stroke="#aac31b" stroke-width="1.51"/><path d="M1806,271L1778,470L1858,539Z" fill="#b3bc17" stroke="#b3bc17" stroke-width="1.51"/><path d="M1995,1055L1914,1236L2057,1275Z" fill="#66b01a" stroke="#66b01a" stroke-width="1.51"/><path d="M1867,1562L1929,1717L2061,1702Z" fill="#5d9968" stroke="#5d9968" stroke-width="1.51"/><path d="M1929,1717L2006,1881L2061,1702Z" fill="#5f876d" stroke="#5f876d" stroke-width="1.51"/><path d="M2006,1881L1906,1918L2062,2110Z" fill="#707771" stroke="#707771" stroke-width="1.51"/><path d="M1906,1918L1852,2015L2062,2110Z" fill="#767772" stroke="#767772" stroke-width="1.51"/><path d="M1983,13L1818,77L2075,200Z" fill="#ad8e1a" stroke="#ad8e1a" stroke-width="1.51"/><path d="M1818,77L1806,271L2075,200Z" fill="#b19c17" stroke="#b19c17" stroke-width="1.51"/><path d="M1914,1236L2046,1387L2057,1275Z" fill="#61ad33" stroke="#61ad33" stroke-width="1.51"/><path d="M1858,790L2028,809L2064,693Z" fill="#8dc51d" stroke="#8dc51d" stroke-width="1.51"/><path d="M1858,539L1858,790L2064,693Z" fill="#9ec71d" stroke="#9ec71d" stroke-width="1.51"/><path d="M1914,1236L1867,1562L2046,1387Z" fill="#5db048" stroke="#5db048" stroke-width="1.51"/><path d="M1880,6L1818,77L1983,13Z" fill="#ae871d" stroke="#ae871d" stroke-width="1.51"/><path d="M1942,-174L1880,6L1983,13Z" fill="#aa7d1d" stroke="#aa7d1d" stroke-width="1.51"/><path d="M1700,-259L1942,-174L2021,-263Z" fill="#9c771a" stroke="#9c771a" stroke-width="1.51"/><path d="M1858,790L1950,855L2028,809Z" fill="#84c51e" stroke="#84c51e" stroke-width="1.51"/><path d="M1929,1717L1906,1918L2006,1881Z" fill="#637f71" stroke="#637f71" stroke-width="1.51"/><path d="M1722,1527L1867,1562L1914,1236Z" fill="#5eb452" stroke="#5eb452" stroke-width="1.51"/><path d="M1963,1003L1914,1236L1995,1055Z" fill="#6bb71c" stroke="#6bb71c" stroke-width="1.51"/><path d="M1658,1078L1914,1236L1963,1003Z" fill="#6ebb1c" stroke="#6ebb1c" stroke-width="1.51"/><path d="M1654,1270L1722,1527L1914,1236Z" fill="#66b740" stroke="#66b740" stroke-width="1.51"/><path d="M1858,790L1695,870L1950,855Z" fill="#84ca1f" stroke="#84ca1f" stroke-width="1.51"/><path d="M1950,855L1695,870L1963,1003Z" fill="#76c71f" stroke="#76c71f" stroke-width="1.51"/><path d="M1695,870L1658,1078L1963,1003Z" fill="#75c61e" stroke="#75c61e" stroke-width="1.51"/><path d="M1735,1703L1906,1918L1929,1717Z" fill="#638a70" stroke="#638a70" stroke-width="1.51"/><path d="M1696,720L1858,790L1858,539Z" fill="#a1cd1d" stroke="#a1cd1d" stroke-width="1.51"/><path d="M1867,1562L1735,1703L1929,1717Z" fill="#609d69" stroke="#609d69" stroke-width="1.51"/><path d="M1700,-259L1880,6L1942,-174Z" fill="#a57d1b" stroke="#a57d1b" stroke-width="1.51"/><path d="M1700,-259L1607,-29L1880,6Z" fill="#ad831d" stroke="#ad831d" stroke-width="1.51"/><path d="M1735,1703L1609,1880L1906,1918Z" fill="#688774" stroke="#688774" stroke-width="1.51"/><path d="M1658,1078L1654,1270L1914,1236Z" fill="#6dba1c" stroke="#6dba1c" stroke-width="1.51"/><path d="M1771,263L1806,271L1818,77Z" fill="#b4a217" stroke="#b4a217" stroke-width="1.51"/><path d="M1609,1880L1852,2015L1906,1918Z" fill="#738074" stroke="#738074" stroke-width="1.51"/><path d="M1700,123L1771,263L1818,77Z" fill="#b59d19" stroke="#b59d19" stroke-width="1.51"/><path d="M1609,1880L1676,2033L1852,2015Z" fill="#7a8175" stroke="#7a8175" stroke-width="1.51"/><path d="M1607,-29L1818,77L1880,6Z" fill="#b38b1e" stroke="#b38b1e" stroke-width="1.51"/><path d="M1771,263L1778,470L1806,271Z" fill="#b5b314" stroke="#b5b314" stroke-width="1.51"/><path d="M1778,470L1696,720L1858,539Z" fill="#b1cd1c" stroke="#b1cd1c" stroke-width="1.51"/><path d="M1722,1527L1735,1703L1867,1562Z" fill="#5faa66" stroke="#5faa66" stroke-width="1.51"/><path d="M1696,720L1695,870L1858,790Z" fill="#8ece1f" stroke="#8ece1f" stroke-width="1.51"/><path d="M1555,490L1696,720L1778,470Z" fill="#b5cf1c" stroke="#b5cf1c" stroke-width="1.51"/><path d="M1607,-29L1700,123L1818,77Z" fill="#b5931d" stroke="#b5931d" stroke-width="1.51"/><path d="M1771,263L1527,304L1778,470Z" fill="#b8b815" stroke="#b8b815" stroke-width="1.51"/><path d="M1527,304L1555,490L1778,470Z" fill="#b9c318" stroke="#b9c318" stroke-width="1.51"/><path d="M1555,490L1586,707L1696,720Z" fill="#aed61e" stroke="#aed61e" stroke-width="1.51"/><path d="M1700,123L1527,304L1771,263Z" fill="#b9ab16" stroke="#b9ab16" stroke-width="1.51"/><path d="M1555,1176L1654,1270L1658,1078Z" fill="#71c01e" stroke="#71c01e" stroke-width="1.51"/><path d="M1506,-97L1607,-29L1700,-259Z" fill="#ae871e" stroke="#ae871e" stroke-width="1.51"/><path d="M1654,1270L1542,1552L1722,1527Z" fill="#63bc56" stroke="#63bc56" stroke-width="1.51"/><path d="M1553,1710L1609,1880L1735,1703Z" fill="#6a9572" stroke="#6a9572" stroke-width="1.51"/><path d="M1722,1527L1542,1552L1735,1703Z" fill="#62af67" stroke="#62af67" stroke-width="1.51"/><path d="M1542,1552L1553,1710L1735,1703Z" fill="#66a86c" stroke="#66a86c" stroke-width="1.51"/><path d="M1586,707L1695,870L1696,720Z" fill="#97d21f" stroke="#97d21f" stroke-width="1.51"/><path d="M1486,131L1527,304L1700,123Z" fill="#bda819" stroke="#bda819" stroke-width="1.51"/><path d="M1417,819L1658,1078L1695,870Z" fill="#7fd120" stroke="#7fd120" stroke-width="1.51"/><path d="M1607,-29L1486,131L1700,123Z" fill="#ba991d" stroke="#ba991d" stroke-width="1.51"/><path d="M1449,-299L1506,-97L1700,-259Z" fill="#ab831c" stroke="#ab831c" stroke-width="1.51"/><path d="M1417,819L1343,941L1658,1078Z" fill="#8dd120" stroke="#8dd120" stroke-width="1.51"/><path d="M1586,707L1417,819L1695,870Z" fill="#96d520" stroke="#96d520" stroke-width="1.51"/><path d="M1468,1208L1542,1552L1654,1270Z" fill="#71bf41" stroke="#71bf41" stroke-width="1.51"/><path d="M1609,1880L1413,2079L1676,2033Z" fill="#838577" stroke="#838577" stroke-width="1.51"/><path d="M1468,1208L1332,1325L1542,1552Z" fill="#7ebf45" stroke="#7ebf45" stroke-width="1.51"/><path d="M1343,941L1555,1176L1658,1078Z" fill="#81c81f" stroke="#81c81f" stroke-width="1.51"/><path d="M1555,1176L1468,1208L1654,1270Z" fill="#75bf20" stroke="#75bf20" stroke-width="1.51"/><path d="M1343,941L1468,1208L1555,1176Z" fill="#87c61e" stroke="#87c61e" stroke-width="1.51"/><path d="M1555,490L1406,672L1586,707Z" fill="#bbd61e" stroke="#bbd61e" stroke-width="1.51"/><path d="M1506,-97L1486,131L1607,-29Z" fill="#be8f1f" stroke="#be8f1f" stroke-width="1.51"/><path d="M1553,1710L1451,1849L1609,1880Z" fill="#738f76" stroke="#738f76" stroke-width="1.51"/><path d="M1451,1849L1413,2079L1609,1880Z" fill="#858877" stroke="#858877" stroke-width="1.51"/><path d="M782,-313L1093,-170L1449,-299Z" fill="#cc7e1b" stroke="#cc7e1b" stroke-width="1.51"/><path d="M1386,-55L1486,131L1506,-97Z" fill="#c48e20" stroke="#c48e20" stroke-width="1.51"/><path d="M1332,1325L1301,1501L1542,1552Z" fill="#80bf59" stroke="#80bf59" stroke-width="1.51"/><path d="M1406,672L1417,819L1586,707Z" fill="#add61e" stroke="#add61e" stroke-width="1.51"/><path d="M782,-313L935,-207L1093,-170Z" fill="#cd7219" stroke="#cd7219" stroke-width="1.51"/><path d="M1343,941L1264,1063L1468,1208Z" fill="#95ca1e" stroke="#95ca1e" stroke-width="1.51"/><path d="M1449,-299L1376,-226L1506,-97Z" fill="#b6831c" stroke="#b6831c" stroke-width="1.51"/><path d="M1301,1501L1237,1591L1542,1552Z" fill="#82ba65" stroke="#82ba65" stroke-width="1.51"/><path d="M1542,1552L1237,1591L1553,1710Z" fill="#7aaf6a" stroke="#7aaf6a" stroke-width="1.51"/><path d="M1237,1591L1269,1771L1553,1710Z" fill="#87a36f" stroke="#87a36f" stroke-width="1.51"/><path d="M1248,494L1406,672L1555,490Z" fill="#ccd31b" stroke="#ccd31b" stroke-width="1.51"/><path d="M1366,307L1248,494L1555,490Z" fill="#cfc617" stroke="#cfc617" stroke-width="1.51"/><path d="M1527,304L1366,307L1555,490Z" fill="#c6bf15" stroke="#c6bf15" stroke-width="1.51"/><path d="M1486,131L1366,307L1527,304Z" fill="#c8b115" stroke="#c8b115" stroke-width="1.51"/><path d="M1269,1771L1451,1849L1553,1710Z" fill="#809674" stroke="#809674" stroke-width="1.51"/><path d="M1301,1961L1413,2079L1451,1849Z" fill="#928678" stroke="#928678" stroke-width="1.51"/><path d="M1093,-170L1376,-226L1449,-299Z" fill="#bf811c" stroke="#bf811c" stroke-width="1.51"/><path d="M1386,-55L1297,52L1486,131Z" fill="#cb941e" stroke="#cb941e" stroke-width="1.51"/><path d="M1376,-226L1386,-55L1506,-97Z" fill="#be871e" stroke="#be871e" stroke-width="1.51"/><path d="M1297,52L1366,307L1486,131Z" fill="#cea519" stroke="#cea519" stroke-width="1.51"/><path d="M1264,1063L1332,1325L1468,1208Z" fill="#8fc11c" stroke="#8fc11c" stroke-width="1.51"/><path d="M1269,1771L1301,1961L1451,1849Z" fill="#8d8c78" stroke="#8d8c78" stroke-width="1.51"/><path d="M1103,1963L995,2099L1301,1961Z" fill="#af8379" stroke="#af8379" stroke-width="1.51"/><path d="M1297,52L1208,297L1366,307Z" fill="#d8ad16" stroke="#d8ad16" stroke-width="1.51"/><path d="M1301,1961L995,2099L1413,2079Z" fill="#a88179" stroke="#a88179" stroke-width="1.51"/><path d="M1406,672L1064,738L1417,819Z" fill="#bfd71e" stroke="#bfd71e" stroke-width="1.51"/><path d="M1064,738L1343,941L1417,819Z" fill="#b1d61e" stroke="#b1d61e" stroke-width="1.51"/><path d="M1376,-226L1093,-170L1386,-55Z" fill="#c8851d" stroke="#c8851d" stroke-width="1.51"/><path d="M1248,494L1064,738L1406,672Z" fill="#d6d81c" stroke="#d6d81c" stroke-width="1.51"/><path d="M1264,1063L1099,1207L1332,1325Z" fill="#9dc21b" stroke="#9dc21b" stroke-width="1.51"/><path d="M1208,297L1248,494L1366,307Z" fill="#dbbf14" stroke="#dbbf14" stroke-width="1.51"/><path d="M1093,-170L1297,52L1386,-55Z" fill="#d28820" stroke="#d28820" stroke-width="1.51"/><path d="M1093,-170L1112,28L1297,52Z" fill="#dd8920" stroke="#dd8920" stroke-width="1.51"/><path d="M1098,512L1064,738L1248,494Z" fill="#e7d71b" stroke="#e7d71b" stroke-width="1.51"/><path d="M1092,100L1208,297L1297,52Z" fill="#dfa31a" stroke="#dfa31a" stroke-width="1.51"/><path d="M1179,1537L1301,1501L1332,1325Z" fill="#8fc058" stroke="#8fc058" stroke-width="1.51"/><path d="M1045,970L1264,1063L1343,941Z" fill="#a8d01e" stroke="#a8d01e" stroke-width="1.51"/><path d="M1064,738L1045,970L1343,941Z" fill="#b7d61e" stroke="#b7d61e" stroke-width="1.51"/><path d="M1099,1207L1179,1537L1332,1325Z" fill="#9bc144" stroke="#9bc144" stroke-width="1.51"/><path d="M28,2035L-128,2101L638,2036Z" fill="#a72166" stroke="#a72166" stroke-width="1.51"/><path d="M1071,1806L1103,1963L1269,1771Z" fill="#9f8d78" stroke="#9f8d78" stroke-width="1.51"/><path d="M1237,1591L1088,1694L1269,1771Z" fill="#98a570" stroke="#98a570" stroke-width="1.51"/><path d="M1112,28L1092,100L1297,52Z" fill="#e0961e" stroke="#e0961e" stroke-width="1.51"/><path d="M1269,1771L1103,1963L1301,1961Z" fill="#9c8a78" stroke="#9c8a78" stroke-width="1.51"/><path d="M1179,1537L1237,1591L1301,1501Z" fill="#91bc65" stroke="#91bc65" stroke-width="1.51"/><path d="M1099,1207L955,1400L1179,1537Z" fill="#a3be48" stroke="#a3be48" stroke-width="1.51"/><path d="M1208,297L1098,512L1248,494Z" fill="#e3c716" stroke="#e3c716" stroke-width="1.51"/><path d="M1060,1093L1099,1207L1264,1063Z" fill="#abc81c" stroke="#abc81c" stroke-width="1.51"/><path d="M1045,970L1060,1093L1264,1063Z" fill="#b0cd1d" stroke="#b0cd1d" stroke-width="1.51"/><path d="M1088,1694L1071,1806L1269,1771Z" fill="#9e9974" stroke="#9e9974" stroke-width="1.51"/><path d="M1092,100L1029,174L1208,297Z" fill="#e6a717" stroke="#e6a717" stroke-width="1.51"/><path d="M985,409L1098,512L1208,297Z" fill="#e8c114" stroke="#e8c114" stroke-width="1.51"/><path d="M1179,1537L1088,1694L1237,1591Z" fill="#9ab26a" stroke="#9ab26a" stroke-width="1.51"/><path d="M985,409L1026,482L1098,512Z" fill="#e9c415" stroke="#e9c415" stroke-width="1.51"/><path d="M1029,174L985,409L1208,297Z" fill="#e8b310" stroke="#e8b310" stroke-width="1.51"/><path d="M1093,-170L981,-62L1112,28Z" fill="#dd821e" stroke="#dd821e" stroke-width="1.51"/><path d="M955,1400L1088,1694L1179,1537Z" fill="#9eb965" stroke="#9eb965" stroke-width="1.51"/><path d="M973,725L888,917L1045,970Z" fill="#becc1a" stroke="#becc1a" stroke-width="1.51"/><path d="M973,725L1045,970L1064,738Z" fill="#c6d01b" stroke="#c6d01b" stroke-width="1.51"/><path d="M955,1400L855,1712L1088,1694Z" fill="#a1a866" stroke="#a1a866" stroke-width="1.51"/><path d="M1020,1790L1071,1806L1088,1694Z" fill="#a09473" stroke="#a09473" stroke-width="1.51"/><path d="M973,725L1064,738L1098,512Z" fill="#ded21a" stroke="#ded21a" stroke-width="1.51"/><path d="M1026,482L973,725L1098,512Z" fill="#e8d019" stroke="#e8d019" stroke-width="1.51"/><path d="M889,1306L955,1400L1099,1207Z" fill="#a7b835" stroke="#a7b835" stroke-width="1.51"/><path d="M1060,1093L1007,1105L1099,1207Z" fill="#acc21a" stroke="#acc21a" stroke-width="1.51"/><path d="M1071,1806L1020,1790L1103,1963Z" fill="#a28877" stroke="#a28877" stroke-width="1.51"/><path d="M981,-62L1092,100L1112,28Z" fill="#e18b1e" stroke="#e18b1e" stroke-width="1.51"/><path d="M1020,1790L775,1896L1103,1963Z" fill="#a57f74" stroke="#a57f74" stroke-width="1.51"/><path d="M775,1896L995,2099L1103,1963Z" fill="#ae7875" stroke="#ae7875" stroke-width="1.51"/><path d="M1007,1105L889,1306L1099,1207Z" fill="#aaba18" stroke="#aaba18" stroke-width="1.51"/><path d="M981,-62L1029,174L1092,100Z" fill="#e3901b" stroke="#e3901b" stroke-width="1.51"/><path d="M935,-207L981,-62L1093,-170Z" fill="#d57a1c" stroke="#d57a1c" stroke-width="1.51"/><path d="M1045,970L1007,1105L1060,1093Z" fill="#b0c61a" stroke="#b0c61a" stroke-width="1.51"/><path d="M855,1712L1020,1790L1088,1694Z" fill="#a1946f" stroke="#a1946f" stroke-width="1.51"/><path d="M775,1896L763,1965L995,2099Z" fill="#ad7071" stroke="#ad7071" stroke-width="1.51"/><path d="M756,1485L855,1712L955,1400Z" fill="#a1ac5e" stroke="#a1ac5e" stroke-width="1.51"/><path d="M756,1485L740,1575L855,1712Z" fill="#a39d61" stroke="#a39d61" stroke-width="1.51"/><path d="M722,473L973,725L1026,482Z" fill="#e8c515" stroke="#e8c515" stroke-width="1.51"/><path d="M981,-62L716,24L1029,174Z" fill="#e1831a" stroke="#e1831a" stroke-width="1.51"/><path d="M716,24L705,139L1029,174Z" fill="#e38516" stroke="#e38516" stroke-width="1.51"/><path d="M737,343L985,409L1029,174Z" fill="#e8a90d" stroke="#e8a90d" stroke-width="1.51"/><path d="M888,917L1007,1105L1045,970Z" fill="#b4c61a" stroke="#b4c61a" stroke-width="1.51"/><path d="M855,1712L775,1896L1020,1790Z" fill="#a18170" stroke="#a18170" stroke-width="1.51"/><path d="M985,409L722,473L1026,482Z" fill="#e8b912" stroke="#e8b912" stroke-width="1.51"/><path d="M705,139L737,343L1029,174Z" fill="#e59610" stroke="#e59610" stroke-width="1.51"/><path d="M763,1965L638,2036L995,2099Z" fill="#b16970" stroke="#b16970" stroke-width="1.51"/><path d="M717,1168L889,1306L1007,1105Z" fill="#abb215" stroke="#abb215" stroke-width="1.51"/><path d="M888,917L717,1168L1007,1105Z" fill="#b2ba17" stroke="#b2ba17" stroke-width="1.51"/><path d="M722,473L733,776L973,725Z" fill="#dfc114" stroke="#dfc114" stroke-width="1.51"/><path d="M733,776L888,917L973,725Z" fill="#c8c517" stroke="#c8c517" stroke-width="1.51"/><path d="M737,343L722,473L985,409Z" fill="#e8ad0e" stroke="#e8ad0e" stroke-width="1.51"/><path d="M935,-207L716,24L981,-62Z" fill="#d9731b" stroke="#d9731b" stroke-width="1.51"/><path d="M328,1958L28,2035L638,2036Z" fill="#a83e68" stroke="#a83e68" stroke-width="1.51"/><path d="M889,1306L756,1485L955,1400Z" fill="#a5b047" stroke="#a5b047" stroke-width="1.51"/><path d="M782,-313L716,24L935,-207Z" fill="#d26a18" stroke="#d26a18" stroke-width="1.51"/><path d="M264,-295L537,-201L782,-313Z" fill="#c34b16" stroke="#c34b16" stroke-width="1.51"/><path d="M733,776L683,870L888,917Z" fill="#c1be16" stroke="#c1be16" stroke-width="1.51"/><path d="M683,870L717,1168L888,917Z" fill="#b6b815" stroke="#b6b815" stroke-width="1.51"/><path d="M676,1275L756,1485L889,1306Z" fill="#a8aa3c" stroke="#a8aa3c" stroke-width="1.51"/><path d="M717,1168L676,1275L889,1306Z" fill="#aaa922" stroke="#aaa922" stroke-width="1.51"/><path d="M722,473L555,645L733,776Z" fill="#e3b712" stroke="#e3b712" stroke-width="1.51"/><path d="M537,-201L716,24L782,-313Z" fill="#d05f17" stroke="#d05f17" stroke-width="1.51"/><path d="M562,1635L775,1896L855,1712Z" fill="#a27f69" stroke="#a27f69" stroke-width="1.51"/><path d="M740,1575L562,1635L855,1712Z" fill="#a39063" stroke="#a39063" stroke-width="1.51"/><path d="M683,870L473,1093L717,1168Z" fill="#b4aa13" stroke="#b4aa13" stroke-width="1.51"/><path d="M676,1275L599,1310L756,1485Z" fill="#a8a33b" stroke="#a8a33b" stroke-width="1.51"/><path d="M562,1635L494,1839L775,1896Z" fill="#a16f69" stroke="#a16f69" stroke-width="1.51"/><path d="M638,2036L763,1965L775,1896Z" fill="#ac686e" stroke="#ac686e" stroke-width="1.51"/><path d="M494,1839L638,2036L775,1896Z" fill="#a8646c" stroke="#a8646c" stroke-width="1.51"/><path d="M570,855L473,1093L683,870Z" fill="#b9ac16" stroke="#b9ac16" stroke-width="1.51"/><path d="M537,-201L485,-5L716,24Z" fill="#d7581a" stroke="#d7581a" stroke-width="1.51"/><path d="M592,423L722,473L737,343Z" fill="#e7a40b" stroke="#e7a40b" stroke-width="1.51"/><path d="M705,139L592,423L737,343Z" fill="#e69608" stroke="#e69608" stroke-width="1.51"/><path d="M500,1511L740,1575L756,1485Z" fill="#a3a059" stroke="#a3a059" stroke-width="1.51"/><path d="M599,1310L500,1511L756,1485Z" fill="#a69e4a" stroke="#a69e4a" stroke-width="1.51"/><path d="M490,89L592,423L705,139Z" fill="#e38310" stroke="#e38310" stroke-width="1.51"/><path d="M592,423L555,645L722,473Z" fill="#e8aa10" stroke="#e8aa10" stroke-width="1.51"/><path d="M500,1511L562,1635L740,1575Z" fill="#a3935c" stroke="#a3935c" stroke-width="1.51"/><path d="M490,89L387,228L592,423Z" fill="#e27d13" stroke="#e27d13" stroke-width="1.51"/><path d="M570,855L683,870L733,776Z" fill="#c5b713" stroke="#c5b713" stroke-width="1.51"/><path d="M555,645L570,855L733,776Z" fill="#d0b314" stroke="#d0b314" stroke-width="1.51"/><path d="M264,-295L351,-222L537,-201Z" fill="#c23a19" stroke="#c23a19" stroke-width="1.51"/><path d="M387,228L532,426L592,423Z" fill="#e48d12" stroke="#e48d12" stroke-width="1.51"/><path d="M490,89L705,139L716,24Z" fill="#e07216" stroke="#e07216" stroke-width="1.51"/><path d="M599,1310L676,1275L717,1168Z" fill="#aba321" stroke="#aba321" stroke-width="1.51"/><path d="M473,1093L599,1310L717,1168Z" fill="#ad9e13" stroke="#ad9e13" stroke-width="1.51"/><path d="M485,-5L490,89L716,24Z" fill="#dd6319" stroke="#dd6319" stroke-width="1.51"/><path d="M473,1093L443,1205L599,1310Z" fill="#ab9616" stroke="#ab9616" stroke-width="1.51"/><path d="M532,426L555,645L592,423Z" fill="#e7a213" stroke="#e7a213" stroke-width="1.51"/><path d="M532,426L436,578L555,645Z" fill="#e6a416" stroke="#e6a416" stroke-width="1.51"/><path d="M442,1701L494,1839L562,1635Z" fill="#a17064" stroke="#a17064" stroke-width="1.51"/><path d="M494,1839L328,1958L638,2036Z" fill="#a6546a" stroke="#a6546a" stroke-width="1.51"/><path d="M555,645L451,835L570,855Z" fill="#ccaa18" stroke="#ccaa18" stroke-width="1.51"/><path d="M451,835L473,1093L570,855Z" fill="#b9a619" stroke="#b9a619" stroke-width="1.51"/><path d="M443,1205L500,1511L599,1310Z" fill="#a89538" stroke="#a89538" stroke-width="1.51"/><path d="M442,1701L421,1773L494,1839Z" fill="#9f6366" stroke="#9f6366" stroke-width="1.51"/><path d="M443,1205L252,1389L500,1511Z" fill="#a68b3d" stroke="#a68b3d" stroke-width="1.51"/><path d="M252,1389L276,1457L500,1511Z" fill="#a3864b" stroke="#a3864b" stroke-width="1.51"/><path d="M387,228L341,393L532,426Z" fill="#e28314" stroke="#e28314" stroke-width="1.51"/><path d="M388,-47L485,-5L537,-201Z" fill="#d24b1b" stroke="#d24b1b" stroke-width="1.51"/><path d="M436,578L451,835L555,645Z" fill="#d9a619" stroke="#d9a619" stroke-width="1.51"/><path d="M500,1511L442,1701L562,1635Z" fill="#a2835e" stroke="#a2835e" stroke-width="1.51"/><path d="M341,393L436,578L532,426Z" fill="#e49316" stroke="#e49316" stroke-width="1.51"/><path d="M351,-222L388,-47L537,-201Z" fill="#cb431a" stroke="#cb431a" stroke-width="1.51"/><path d="M436,578L276,646L451,835Z" fill="#d89e1b" stroke="#d89e1b" stroke-width="1.51"/><path d="M451,835L173,978L473,1093Z" fill="#b6981c" stroke="#b6981c" stroke-width="1.51"/><path d="M485,-5L388,-47L490,89Z" fill="#d8521b" stroke="#d8521b" stroke-width="1.51"/><path d="M421,1773L328,1958L494,1839Z" fill="#9f5468" stroke="#9f5468" stroke-width="1.51"/><path d="M276,1457L442,1701L500,1511Z" fill="#a28559" stroke="#a28559" stroke-width="1.51"/><path d="M329,1179L252,1389L443,1205Z" fill="#a98727" stroke="#a98727" stroke-width="1.51"/><path d="M173,978L329,1179L473,1093Z" fill="#af8d1b" stroke="#af8d1b" stroke-width="1.51"/><path d="M388,-47L265,96L490,89Z" fill="#d8501c" stroke="#d8501c" stroke-width="1.51"/><path d="M265,96L387,228L490,89Z" fill="#dc601a" stroke="#dc601a" stroke-width="1.51"/><path d="M276,646L228,712L451,835Z" fill="#d1981d" stroke="#d1981d" stroke-width="1.51"/><path d="M329,1179L443,1205L473,1093Z" fill="#ad9018" stroke="#ad9018" stroke-width="1.51"/><path d="M276,1457L126,1751L442,1701Z" fill="#9f6c5d" stroke="#9f6c5d" stroke-width="1.51"/><path d="M228,712L173,978L451,835Z" fill="#c1951e" stroke="#c1951e" stroke-width="1.51"/><path d="M341,393L276,646L436,578Z" fill="#e3931b" stroke="#e3931b" stroke-width="1.51"/><path d="M126,1751L170,1803L442,1701Z" fill="#9c5462" stroke="#9c5462" stroke-width="1.51"/><path d="M170,1803L421,1773L442,1701Z" fill="#9d5c64" stroke="#9d5c64" stroke-width="1.51"/><path d="M103,1960L28,2035L328,1958Z" fill="#a12b65" stroke="#a12b65" stroke-width="1.51"/><path d="M250,1197L252,1389L329,1179Z" fill="#a88126" stroke="#a88126" stroke-width="1.51"/><path d="M170,1803L328,1958L421,1773Z" fill="#9c4a67" stroke="#9c4a67" stroke-width="1.51"/><path d="M173,978L142,1114L250,1197Z" fill="#ae801e" stroke="#ae801e" stroke-width="1.51"/><path d="M173,978L250,1197L329,1179Z" fill="#ad851c" stroke="#ad851c" stroke-width="1.51"/><path d="M97,546L276,646L341,393Z" fill="#e1871d" stroke="#e1871d" stroke-width="1.51"/><path d="M97,282L341,393L387,228Z" fill="#df6f17" stroke="#df6f17" stroke-width="1.51"/><path d="M351,-222L178,-40L388,-47Z" fill="#cc331d" stroke="#cc331d" stroke-width="1.51"/><path d="M178,-40L265,96L388,-47Z" fill="#d4391e" stroke="#d4391e" stroke-width="1.51"/><path d="M265,96L97,282L387,228Z" fill="#da5d1a" stroke="#da5d1a" stroke-width="1.51"/><path d="M264,-295L178,-40L351,-222Z" fill="#c3291c" stroke="#c3291c" stroke-width="1.51"/><path d="M64,1712L126,1751L276,1457Z" fill="#9d615b" stroke="#9d615b" stroke-width="1.51"/><path d="M44,402L97,546L341,393Z" fill="#de771d" stroke="#de771d" stroke-width="1.51"/><path d="M97,282L44,402L341,393Z" fill="#dc6c1b" stroke="#dc6c1b" stroke-width="1.51"/><path d="M-241,-125L-156,-222L-77,-324Z" fill="#ab0917" stroke="#ab0917" stroke-width="1.51"/><path d="M170,1803L103,1960L328,1958Z" fill="#9e3866" stroke="#9e3866" stroke-width="1.51"/><path d="M-8,790L173,978L228,712Z" fill="#bf8a20" stroke="#bf8a20" stroke-width="1.51"/><path d="M250,1197L61,1303L252,1389Z" fill="#a6792f" stroke="#a6792f" stroke-width="1.51"/><path d="M45,-31L178,-40L264,-295Z" fill="#c6181d" stroke="#c6181d" stroke-width="1.51"/><path d="M-77,-324L45,-31L264,-295Z" fill="#b9111a" stroke="#b9111a" stroke-width="1.51"/><path d="M252,1389L30,1384L276,1457Z" fill="#a37844" stroke="#a37844" stroke-width="1.51"/><path d="M30,1384L64,1712L276,1457Z" fill="#9d7654" stroke="#9d7654" stroke-width="1.51"/><path d="M97,546L228,712L276,646Z" fill="#dc8c20" stroke="#dc8c20" stroke-width="1.51"/><path d="M-21,141L97,282L265,96Z" fill="#d44d1b" stroke="#d44d1b" stroke-width="1.51"/><path d="M178,-40L45,-31L265,96Z" fill="#d0281f" stroke="#d0281f" stroke-width="1.51"/><path d="M45,-31L-21,141L265,96Z" fill="#cf361d" stroke="#cf361d" stroke-width="1.51"/><path d="M142,1114L61,1303L250,1197Z" fill="#a6781c" stroke="#a6781c" stroke-width="1.51"/><path d="M61,1303L30,1384L252,1389Z" fill="#a1763a" stroke="#a1763a" stroke-width="1.51"/><path d="M66,1907L103,1960L170,1803Z" fill="#993664" stroke="#993664" stroke-width="1.51"/><path d="M97,546L-8,790L228,712Z" fill="#d0881f" stroke="#d0881f" stroke-width="1.51"/><path d="M44,402L23,477L97,546Z" fill="#d8771c" stroke="#d8771c" stroke-width="1.51"/><path d="M-8,790L-95,859L173,978Z" fill="#b2871e" stroke="#b2871e" stroke-width="1.51"/><path d="M-41,1090L142,1114L173,978Z" fill="#aa7f1d" stroke="#aa7f1d" stroke-width="1.51"/><path d="M126,1751L66,1907L170,1803Z" fill="#953e64" stroke="#953e64" stroke-width="1.51"/><path d="M-95,859L-41,1090L173,978Z" fill="#aa821d" stroke="#aa821d" stroke-width="1.51"/><path d="M-77,-324L-156,-222L45,-31Z" fill="#b30f19" stroke="#b30f19" stroke-width="1.51"/><path d="M30,1384L-226,1620L64,1712Z" fill="#926854" stroke="#926854" stroke-width="1.51"/><path d="M64,1712L66,1907L126,1751Z" fill="#944362" stroke="#944362" stroke-width="1.51"/><path d="M-41,1090L61,1303L142,1114Z" fill="#a2771b" stroke="#a2771b" stroke-width="1.51"/><path d="M23,477L-8,790L97,546Z" fill="#d7851e" stroke="#d7851e" stroke-width="1.51"/><path d="M66,1907L28,2035L103,1960Z" fill="#9b2c63" stroke="#9b2c63" stroke-width="1.51"/><path d="M64,1712L-218,1818L66,1907Z" fill="#8d3c61" stroke="#8d3c61" stroke-width="1.51"/><path d="M-132,326L44,402L97,282Z" fill="#d36518" stroke="#d36518" stroke-width="1.51"/><path d="M-21,141L-132,326L97,282Z" fill="#cf5717" stroke="#cf5717" stroke-width="1.51"/><path d="M-187,790L-8,790L23,477Z" fill="#c7831d" stroke="#c7831d" stroke-width="1.51"/><path d="M-203,1390L-226,1620L30,1384Z" fill="#906f47" stroke="#906f47" stroke-width="1.51"/><path d="M-41,1090L-151,1275L61,1303Z" fill="#9b721d" stroke="#9b721d" stroke-width="1.51"/><path d="M-218,1818L28,2035L66,1907Z" fill="#923061" stroke="#923061" stroke-width="1.51"/><path d="M-226,1620L-218,1818L64,1712Z" fill="#8b4c5b" stroke="#8b4c5b" stroke-width="1.51"/><path d="M-151,1275L30,1384L61,1303Z" fill="#9a7231" stroke="#9a7231" stroke-width="1.51"/><path d="M-294,430L-187,790L23,477Z" fill="#cd7d1b" stroke="#cd7d1b" stroke-width="1.51"/><path d="M-218,1818L-128,2101L28,2035Z" fill="#922660" stroke="#922660" stroke-width="1.51"/><path d="M-241,-125L-21,141L45,-31Z" fill="#c21e1c" stroke="#c21e1c" stroke-width="1.51"/><path d="M-156,-222L-241,-125L45,-31Z" fill="#b61019" stroke="#b61019" stroke-width="1.51"/><path d="M-132,326L23,477L44,402Z" fill="#d36d19" stroke="#d36d19" stroke-width="1.51"/><path d="M-151,1275L-203,1390L30,1384Z" fill="#957036" stroke="#957036" stroke-width="1.51"/><path d="M-132,326L-294,430L23,477Z" fill="#cc6b18" stroke="#cc6b18" stroke-width="1.51"/><path d="M-95,859L-235,1037L-41,1090Z" fill="#a17d1b" stroke="#a17d1b" stroke-width="1.51"/><path d="M-241,-125L-213,213L-21,141Z" fill="#c13319" stroke="#c13319" stroke-width="1.51"/><path d="M-213,213L-132,326L-21,141Z" fill="#c95117" stroke="#c95117" stroke-width="1.51"/><path d="M-187,790L-95,859L-8,790Z" fill="#b3831c" stroke="#b3831c" stroke-width="1.51"/><path d="M-235,1037L-151,1275L-41,1090Z" fill="#997419" stroke="#997419" stroke-width="1.51"/><path d="M-219,822L-235,1037L-95,859Z" fill="#a3811b" stroke="#a3811b" stroke-width="1.51"/><path d="M-187,790L-219,822L-95,859Z" fill="#af821b" stroke="#af821b" stroke-width="1.51"/><path d="M-213,213L-294,430L-132,326Z" fill="#c65d14" stroke="#c65d14" stroke-width="1.51"/><path d="M-294,430L-219,822L-187,790Z" fill="#bd7f1b" stroke="#bd7f1b" stroke-width="1.51"/><path d="M-235,1037L-203,1390L-151,1275Z" fill="#926e1e" stroke="#926e1e" stroke-width="1.51"/><path d="M-241,-125L-294,430L-213,213Z" fill="#c04516" stroke="#c04516" stroke-width="1.51"/><path d="M-235,1037L-226,1620L-203,1390Z" fill="#8f6d33" stroke="#8f6d33" stroke-width="1.51"/><path d="M-294,430L-235,1037L-219,822Z" fill="#b27f1a" stroke="#b27f1a" stroke-width="1.51"/><path d="M-235,1037L-294,430L-226,1620Z" fill="#997819" stroke="#997819" stroke-width="1.51"/></svg>